{"glyphs":{"0":{"ha":1544,"x_min":0,"x_max":0,"o":"m 772 1000 b 1468 526 1178 1000 1468 874 l 1468 456 b 772 -18 1468 108 1178 -18 b 76 456 367 -18 76 108 l 76 526 b 772 1000 76 874 367 1000 m 279 456 b 772 176 279 210 524 176 b 1085 214 885 176 996 183 l 654 753 l 897 753 l 1236 328 b 1265 456 1254 363 1265 404 l 1265 526 b 772 806 1265 772 1021 806 b 279 526 524 806 279 772 l 279 456 "},"1":{"ha":897,"x_min":0,"x_max":0,"o":"m 814 0 l 69 0 l 69 197 l 340 197 l 435 775 l 249 775 l 249 972 l 676 972 l 550 197 l 814 197 "},"2":{"ha":1306,"x_min":0,"x_max":0,"o":"m 568 972 l 1264 972 b 815 471 1264 683 1006 553 b 314 197 460 318 315 264 l 1151 197 l 1151 0 l 83 0 l 83 160 b 606 596 83 371 225 424 b 953 775 707 642 850 685 l 536 775 m 519 972 l 467 639 l 257 639 l 311 972 "},"3":{"ha":1315,"x_min":0,"x_max":0,"o":"m 506 972 l 1160 972 l 1160 790 b 924 579 1111 701 1018 632 b 1246 332 1151 557 1246 490 l 1246 275 b 647 -18 1246 67 1060 -18 b 49 275 235 -18 49 67 l 49 351 l 251 351 l 251 317 b 647 176 251 224 357 176 b 1043 304 938 176 1043 217 l 1043 313 b 628 400 1043 406 918 400 l 531 400 l 531 589 b 867 775 632 635 768 683 l 474 775 m 457 972 l 404 639 l 194 639 l 249 972 "},"4":{"ha":1294,"x_min":0,"x_max":0,"o":"m 919 261 l 49 261 l 49 458 l 833 972 l 1176 972 l 390 458 l 950 458 l 1006 804 l 1240 958 l 1086 0 l 878 0 "},"5":{"ha":1328,"x_min":0,"x_max":0,"o":"m 167 972 l 800 972 l 832 775 l 407 775 l 436 597 l 690 597 b 1253 332 1103 597 1253 540 l 1253 275 b 654 -18 1253 67 1067 -18 b 56 275 242 -18 56 67 l 56 351 l 258 351 l 258 317 b 654 176 258 224 364 176 b 1050 304 944 176 1050 218 b 676 400 1050 399 967 400 l 258 400 m 1107 669 l 897 669 l 849 972 l 1057 972 "},"6":{"ha":1333,"x_min":0,"x_max":0,"o":"m 1257 275 b 658 -18 1257 67 1071 -18 b 60 275 246 -18 60 68 l 60 304 b 185 519 60 401 100 464 l 876 972 l 1225 972 l 651 597 l 658 597 b 1257 304 1071 597 1257 513 l 1257 275 m 1054 296 b 658 403 1054 372 928 403 b 263 296 389 403 263 372 l 263 283 b 658 176 263 207 389 176 b 1054 283 928 176 1054 207 l 1054 296 "},"7":{"ha":1279,"x_min":0,"x_max":0,"o":"m 338 972 l 275 583 l 65 583 l 129 972 m 597 0 l 339 0 l 942 775 l 354 775 l 386 972 l 1203 972 l 1203 778 "},"8":{"ha":1329,"x_min":0,"x_max":0,"o":"m 63 304 b 222 535 63 413 114 488 l 293 972 l 1188 972 l 1115 529 b 1260 304 1214 482 1260 408 l 1260 276 b 661 -17 1260 68 1074 -17 b 63 276 249 -17 63 69 l 63 304 m 661 597 b 914 583 758 597 842 593 l 944 771 l 469 771 l 440 586 b 661 597 506 594 579 597 m 661 403 b 265 296 392 403 265 372 l 265 285 b 661 178 265 208 392 178 b 1057 285 931 178 1057 208 l 1057 296 b 661 403 1057 372 931 403 "},"9":{"ha":1333,"x_min":0,"x_max":0,"o":"m 443 0 l 94 0 l 683 385 l 675 385 b 76 678 263 385 76 469 l 76 707 b 675 1000 76 915 263 1000 b 1274 707 1088 1000 1274 914 l 1274 678 b 1149 463 1274 581 1233 518 m 279 686 b 675 579 279 610 406 579 b 1071 686 944 579 1071 610 l 1071 699 b 675 806 1071 775 944 806 b 279 699 406 806 279 775 l 279 686 "}," ":{"ha":486,"x_min":0,"x_max":0,"o":""},"!":{"ha":804,"x_min":0,"x_max":0,"o":"m 507 282 l 297 282 l 297 972 l 507 972 m 97 200 l 707 200 l 707 0 l 97 0 "},"\"":{"ha":764,"x_min":0,"x_max":0,"o":"m 436 508 l 436 972 l 653 972 l 653 508 m 111 508 l 111 972 l 328 972 l 328 508 "},"#":{"ha":853,"x_min":0,"x_max":0,"o":"m 592 300 l 518 0 l 453 0 l 526 300 l 233 300 l 160 0 l 94 0 l 168 300 l 69 300 l 69 363 l 183 363 l 244 610 l 132 610 l 132 672 l 260 672 l 335 972 l 400 972 l 325 672 l 618 672 l 693 972 l 758 972 l 683 672 l 783 672 l 783 610 l 668 610 l 607 363 l 721 363 l 721 300 m 249 363 l 542 363 l 603 610 l 310 610 "},"$":{"ha":1356,"x_min":0,"x_max":0,"o":"m 1304 261 b 753 -18 1304 86 1113 -12 l 753 -86 l 690 -86 l 690 -18 b 53 389 333 -11 63 113 l 267 389 b 690 179 294 236 468 183 l 690 417 l 468 450 b 90 722 243 483 90 574 l 90 760 b 390 972 90 919 199 972 l 690 972 l 690 1058 l 753 1058 l 753 972 l 811 972 l 1007 775 l 753 775 l 753 604 l 1001 567 b 1304 321 1196 538 1304 457 l 1304 261 m 690 614 l 690 775 l 297 775 b 582 631 297 697 399 658 m 753 407 l 753 179 b 1090 276 1006 183 1090 219 l 1090 296 b 946 378 1090 346 1043 363 "},"%":{"ha":1513,"x_min":0,"x_max":0,"o":"m 1219 1000 l 1264 956 l 292 -18 l 247 26 m 396 1000 b 744 764 599 1000 744 938 l 744 728 b 396 492 744 554 599 492 b 49 728 193 492 49 554 l 49 764 b 396 1000 49 938 193 1000 m 213 732 b 396 628 213 640 304 628 b 475 632 424 628 450 629 l 319 828 l 440 828 l 564 674 b 582 732 575 688 582 707 l 582 760 b 396 864 582 851 490 864 b 213 760 304 864 213 851 l 213 732 m 1115 490 b 1464 254 1318 490 1464 428 l 1464 218 b 1115 -18 1464 44 1318 -18 b 768 218 913 -18 768 44 l 768 254 b 1115 490 768 428 913 490 m 932 222 b 1115 118 932 131 1024 118 b 1194 122 1143 118 1169 119 l 1039 318 l 1160 318 l 1283 164 b 1301 222 1294 178 1301 197 l 1301 250 b 1115 354 1301 342 1210 354 b 932 250 1024 354 932 342 l 932 222 "},"&":{"ha":1163,"x_min":0,"x_max":0,"o":"m 453 478 l 35 972 l 1128 972 l 710 478 l 1278 -194 l 1021 -194 l 582 325 l 460 181 l 640 181 l 793 0 l 50 0 m 582 629 l 718 792 l 444 792 "},"'":{"ha":439,"x_min":0,"x_max":0,"o":"m 111 508 l 111 972 l 328 972 l 328 508 "},"(":{"ha":494,"x_min":0,"x_max":0,"o":"m 481 868 b 272 456 368 799 272 633 b 481 43 272 278 368 113 l 481 -144 b 104 456 229 -40 104 204 b 481 1056 104 707 229 951 l 481 868 "},")":{"ha":494,"x_min":0,"x_max":0,"o":"m 222 456 b 14 868 222 633 126 799 l 14 1056 b 390 456 265 951 390 707 b 14 -144 390 204 265 -40 l 14 43 b 222 456 126 113 222 278 "},"*":{"ha":624,"x_min":0,"x_max":0,"o":"m 181 471 l 129 506 l 263 688 l 49 757 l 67 817 l 281 747 l 281 972 l 343 972 l 343 747 l 557 817 l 575 757 l 361 688 l 494 506 l 443 471 l 313 653 "},"+":{"ha":826,"x_min":0,"x_max":0,"o":"m 382 385 l 139 385 l 139 447 l 382 447 l 382 690 l 444 690 l 444 447 l 688 447 l 688 385 l 444 385 l 444 142 l 382 142 "},",":{"ha":775,"x_min":0,"x_max":0,"o":"m 408 186 l 726 186 l 114 -194 l -204 -194 "},"-":{"ha":789,"x_min":0,"x_max":0,"o":"m 97 317 l 97 515 l 692 515 l 692 317 "},".":{"ha":594,"x_min":0,"x_max":0,"o":"m 97 200 l 497 200 l 497 0 l 97 0 "},"/":{"ha":878,"x_min":0,"x_max":0,"o":"m 878 972 l 207 0 l 0 0 l 671 972 "},":":{"ha":594,"x_min":0,"x_max":0,"o":"m 97 722 l 497 722 l 497 522 l 97 522 m 97 200 l 497 200 l 497 0 l 97 0 "},";":{"ha":789,"x_min":0,"x_max":0,"o":"m 97 722 l 692 722 l 692 522 l 97 522 m 408 186 l 726 186 l 114 -194 l -204 -194 "},"<":{"ha":826,"x_min":0,"x_max":0,"o":"m 257 417 l 589 85 l 544 42 l 169 417 l 544 792 l 589 749 "},"=":{"ha":826,"x_min":0,"x_max":0,"o":"m 139 521 l 139 583 l 688 583 l 688 521 m 139 250 l 139 313 l 688 313 l 688 250 "},">":{"ha":826,"x_min":0,"x_max":0,"o":"m 238 749 l 282 792 l 657 417 l 282 42 l 238 85 l 569 417 "},"?":{"ha":1106,"x_min":0,"x_max":0,"o":"m 129 972 l 1082 972 b 633 475 1082 689 800 547 b 515 314 543 436 515 407 l 515 268 l 304 268 l 304 369 b 543 643 304 497 417 588 b 771 775 622 678 706 717 l 307 775 l 285 639 l 75 639 m 104 200 l 714 200 l 714 0 l 104 0 "},"@":{"ha":1567,"x_min":0,"x_max":0,"o":"m 1068 -253 b 783 -314 981 -292 885 -314 b 83 386 399 -314 83 1 b 783 1086 83 771 399 1086 b 1483 386 1168 1086 1483 771 b 1271 -115 1483 190 1401 13 l 1271 317 b 810 764 1271 661 1151 764 l 447 764 l 268 579 l 768 579 b 1054 475 903 579 1015 572 l 676 475 b 344 257 490 475 344 426 l 344 222 b 683 -18 344 58 475 -18 b 1068 154 858 -18 994 53 l 1068 -253 m 1068 247 b 732 164 997 200 849 164 b 542 239 619 164 542 178 l 542 253 b 683 317 542 307 593 317 l 1068 317 l 1068 247 "},"A":{"ha":1515,"x_min":0,"x_max":0,"o":"m 1124 244 l 392 244 l 251 0 l 14 0 l 572 972 l 943 972 l 1501 0 l 1264 0 m 1014 436 l 758 882 l 501 436 "},"B":{"ha":1304,"x_min":0,"x_max":0,"o":"m 104 972 l 815 972 b 1135 708 1004 972 1136 856 b 1047 526 1135 635 1096 558 b 1260 286 1174 503 1260 424 b 947 0 1260 132 1163 0 l 104 0 m 324 775 l 324 586 l 825 586 b 932 682 894 586 932 629 b 825 775 932 736 894 775 m 324 401 l 324 197 l 942 197 b 1054 300 1004 197 1054 236 b 942 401 1054 365 1004 401 "},"C":{"ha":1547,"x_min":0,"x_max":0,"o":"m 775 175 b 1260 389 997 175 1217 214 l 1476 389 b 775 -18 1443 96 1178 -18 b 69 456 343 -18 69 113 l 69 526 b 775 1000 69 869 343 1000 b 1478 583 1182 1000 1449 883 l 1263 583 b 775 807 1225 767 1001 807 b 282 526 526 807 282 758 l 282 456 b 775 175 282 224 526 175 "},"D":{"ha":1435,"x_min":0,"x_max":0,"o":"m 104 972 l 692 972 b 1365 507 1124 972 1365 850 l 1365 465 b 692 0 1365 122 1124 0 l 104 0 m 324 775 l 324 197 l 692 197 b 1153 465 940 197 1153 233 l 1153 507 b 692 775 1153 739 940 775 "},"E":{"ha":1279,"x_min":0,"x_max":0,"o":"m 104 972 l 1203 972 l 1203 775 l 324 775 l 324 590 l 975 590 l 975 397 l 324 397 l 324 197 l 1203 197 l 1203 0 l 104 0 "},"F":{"ha":1242,"x_min":0,"x_max":0,"o":"m 104 972 l 1203 972 l 1203 775 l 324 775 l 324 590 l 975 590 l 975 397 l 324 397 l 324 0 l 104 0 "},"G":{"ha":1550,"x_min":0,"x_max":0,"o":"m 775 175 b 1263 397 1001 175 1224 215 l 525 397 l 525 590 l 1481 590 l 1481 456 b 775 -18 1481 113 1207 -18 b 69 456 343 -18 69 113 l 69 526 b 775 1000 69 869 343 1000 b 1456 689 1131 1000 1379 911 l 1208 689 b 775 807 1121 783 949 807 b 282 526 526 807 282 758 l 282 456 b 775 175 282 224 526 175 "},"H":{"ha":1535,"x_min":0,"x_max":0,"o":"m 1211 393 l 324 393 l 324 0 l 104 0 l 104 972 l 324 972 l 324 594 l 1211 594 l 1211 972 l 1431 972 l 1431 0 l 1211 0 "},"I":{"ha":1142,"x_min":0,"x_max":0,"o":"m 83 972 l 1058 972 l 1058 775 l 681 775 l 681 197 l 1058 197 l 1058 0 l 83 0 l 83 197 l 461 197 l 461 775 l 83 775 "},"J":{"ha":1399,"x_min":0,"x_max":0,"o":"m 482 972 l 1304 972 l 1304 478 b 656 -18 1301 101 1024 -18 b 14 389 319 -18 61 82 l 235 389 b 657 179 285 199 489 179 b 1085 475 847 179 1085 207 l 1085 775 l 482 775 "},"K":{"ha":1413,"x_min":0,"x_max":0,"o":"m 629 510 l 324 339 l 324 0 l 104 0 l 104 972 l 324 972 l 324 560 l 1060 972 l 1454 972 l 815 614 l 1225 0 l 969 0 "},"L":{"ha":1168,"x_min":0,"x_max":0,"o":"m 1106 0 l 104 0 l 104 972 l 324 972 l 324 197 l 1106 197 "},"M":{"ha":1711,"x_min":0,"x_max":0,"o":"m 856 257 l 1311 972 l 1607 972 l 1607 0 l 1388 0 l 1388 703 l 1050 172 l 661 172 l 324 703 l 324 0 l 104 0 l 104 972 l 400 972 "},"N":{"ha":1479,"x_min":0,"x_max":0,"o":"m 1375 0 l 1150 0 l 324 710 l 324 0 l 104 0 l 104 972 l 329 972 l 1156 261 l 1156 972 l 1375 972 "},"O":{"ha":1550,"x_min":0,"x_max":0,"o":"m 69 526 b 775 1000 69 869 343 1000 b 1481 526 1207 1000 1481 869 l 1481 456 b 775 -18 1481 113 1207 -18 b 69 456 343 -18 69 113 l 69 526 m 1268 526 b 775 807 1268 758 1024 807 b 282 526 526 807 282 758 l 282 456 b 775 175 282 224 526 175 b 1268 456 1024 175 1268 224 l 1268 526 "},"P":{"ha":1325,"x_min":0,"x_max":0,"o":"m 104 972 l 890 972 b 1276 625 1131 972 1276 831 b 890 278 1276 419 1131 278 l 324 278 l 324 0 l 104 0 m 324 775 l 324 475 l 875 475 b 1060 625 996 475 1060 533 b 875 775 1060 717 996 775 "},"Q":{"ha":1550,"x_min":0,"x_max":0,"o":"m 1200 46 b 775 -18 1086 1 943 -18 b 69 456 343 -18 69 113 l 69 526 b 775 1000 69 869 343 1000 b 1481 526 1207 1000 1481 869 l 1481 456 b 1363 146 1481 322 1439 221 l 1479 0 l 1236 0 m 1268 526 b 836 806 1268 739 1063 797 l 1228 315 b 1268 456 1253 353 1268 399 l 1268 526 m 282 456 b 775 175 282 224 526 175 b 1068 211 879 175 983 183 l 600 797 b 282 526 424 774 282 703 l 282 456 "},"R":{"ha":1599,"x_min":0,"x_max":0,"o":"m 104 972 l 1081 972 b 1424 686 1293 972 1424 865 b 1081 406 1424 493 1293 424 l 824 382 l 1654 0 l 1215 0 l 457 350 l 324 338 l 324 0 l 104 0 m 324 775 l 324 522 l 1094 592 b 1207 686 1161 597 1207 624 b 1094 775 1207 750 1161 775 "},"S":{"ha":1346,"x_min":0,"x_max":0,"o":"m 468 450 b 90 722 243 483 90 574 l 90 760 b 390 972 90 919 199 972 l 811 972 l 1007 775 l 297 775 b 582 631 297 697 399 658 l 1001 567 b 1304 321 1196 538 1304 457 l 1304 261 b 722 -18 1304 81 1101 -18 b 53 389 350 -18 63 104 l 267 389 b 721 179 296 229 483 179 b 1090 276 999 181 1090 217 l 1090 296 b 946 378 1090 346 1043 363 l 468 450 "},"T":{"ha":1378,"x_min":0,"x_max":0,"o":"m 49 972 l 1329 972 l 1329 775 l 799 775 l 799 0 l 579 0 l 579 775 l 49 775 "},"U":{"ha":1486,"x_min":0,"x_max":0,"o":"m 314 475 b 744 175 314 207 554 175 b 1172 475 935 175 1172 207 l 1172 972 l 1392 972 l 1392 478 b 743 -18 1392 101 1111 -18 b 94 478 378 -18 94 101 l 94 972 l 314 972 l 314 475 "},"V":{"ha":1454,"x_min":0,"x_max":0,"o":"m 931 0 l 524 0 l 14 972 l 265 972 l 728 92 l 1189 972 l 1440 972 "},"W":{"ha":1714,"x_min":0,"x_max":0,"o":"m 857 549 l 640 0 l 253 0 l 58 972 l 286 972 l 463 89 l 733 764 l 981 764 l 1251 89 l 1428 972 l 1656 972 l 1461 0 l 1074 0 "},"X":{"ha":1540,"x_min":0,"x_max":0,"o":"m 771 374 l 439 0 l 161 0 l 540 428 l -7 972 l 293 972 l 771 497 l 1247 972 l 1547 972 l 1000 428 l 1379 0 l 1101 0 "},"Y":{"ha":1428,"x_min":0,"x_max":0,"o":"m 825 0 l 606 0 l 606 410 l -7 972 l 303 972 l 715 589 l 1126 972 l 1435 972 l 825 410 "},"Z":{"ha":1376,"x_min":0,"x_max":0,"o":"m 1335 0 l 160 0 l 160 197 l 917 775 l 35 775 l 35 972 l 1229 972 l 1229 775 l 472 197 l 1335 197 "},"[":{"ha":529,"x_min":0,"x_max":0,"o":"m 118 1058 l 494 1058 l 494 899 l 286 899 l 286 15 l 494 15 l 494 -144 l 118 -144 "},"\\":{"ha":878,"x_min":0,"x_max":0,"o":"m 207 972 l 878 0 l 671 0 l 0 972 "},"]":{"ha":529,"x_min":0,"x_max":0,"o":"m 411 -144 l 35 -144 l 35 15 l 243 15 l 243 899 l 35 899 l 35 1058 l 411 1058 "},"_":{"ha":647,"x_min":0,"x_max":0,"o":"m 0 -158 l 0 -96 l 647 -96 l 647 -158 "},"`":{"ha":1474,"x_min":0,"x_max":0,"o":"m 0 1139 l 17 1201 l 1474 803 l 1457 740 "},"a":{"ha":1110,"x_min":0,"x_max":0,"o":"m 819 149 b 439 -18 746 50 610 -18 b 100 222 231 -18 100 58 l 100 257 b 432 475 100 426 246 475 l 806 475 b 524 583 771 572 668 583 l 28 583 l 203 764 l 565 764 b 1026 317 907 764 1026 661 l 1026 0 l 819 0 m 488 164 b 819 244 601 164 746 199 l 819 317 l 439 317 b 297 253 349 317 297 307 l 297 239 b 488 164 297 178 375 164 "},"b":{"ha":1181,"x_min":0,"x_max":0,"o":"m 1118 361 b 722 -18 1118 131 954 -18 b 318 164 538 -18 396 69 l 318 0 l 111 0 l 111 1058 l 318 1058 l 318 603 b 722 785 396 697 538 785 b 1118 406 954 785 1118 636 l 1118 361 m 640 593 b 318 506 524 593 393 550 l 318 261 b 640 174 393 217 524 174 b 922 361 800 174 922 231 l 922 406 b 640 593 922 536 800 593 "},"c":{"ha":1167,"x_min":0,"x_max":0,"o":"m 585 167 b 901 304 750 167 868 213 l 1103 304 b 585 -18 1075 89 882 -18 b 63 361 263 -18 63 108 l 63 406 b 585 785 63 658 263 785 b 1104 460 883 785 1076 676 l 903 460 b 585 600 871 553 753 600 b 258 406 388 600 258 536 l 258 361 b 585 167 258 231 388 167 "},"d":{"ha":1181,"x_min":0,"x_max":0,"o":"m 863 164 b 458 -18 785 69 643 -18 b 63 361 226 -18 63 131 l 63 406 b 458 785 63 636 226 785 b 863 603 643 785 785 697 l 863 1058 l 1069 1058 l 1069 0 l 863 0 m 258 361 b 540 174 258 231 381 174 b 863 261 657 174 788 217 l 863 506 b 540 593 788 550 657 593 b 258 406 381 593 258 536 l 258 361 "},"e":{"ha":1058,"x_min":0,"x_max":0,"o":"m 554 785 b 1017 399 839 785 1017 654 l 1017 331 l 261 331 b 557 181 276 222 382 181 l 881 181 l 703 0 l 564 0 b 63 361 233 0 63 106 l 63 392 b 554 785 63 647 258 785 m 550 610 b 274 475 399 610 308 558 l 789 475 b 550 610 768 567 686 610 "},"f":{"ha":875,"x_min":0,"x_max":0,"o":"m 42 764 l 193 764 b 551 1058 193 939 322 1058 l 785 1058 l 1000 838 l 618 886 b 400 764 482 886 400 851 l 794 764 l 794 583 l 400 583 l 400 0 l 193 0 l 193 583 l 42 583 "},"g":{"ha":1153,"x_min":0,"x_max":0,"o":"m 1042 96 b 496 -286 1042 -181 842 -286 l 189 -286 l 17 -108 l 501 -108 b 835 96 699 -108 835 -44 l 835 163 b 444 -18 760 69 628 -18 b 63 361 228 -18 63 138 l 63 406 b 444 785 63 631 228 785 b 835 604 628 785 760 697 l 835 764 l 1042 764 l 1042 96 m 258 361 b 526 174 258 238 382 174 b 835 261 642 174 763 215 l 835 506 b 526 593 763 551 642 593 b 258 406 382 593 258 529 l 258 361 "},"h":{"ha":1144,"x_min":0,"x_max":0,"o":"m 636 593 b 318 500 533 593 389 554 l 318 0 l 111 0 l 111 1058 l 318 1058 l 318 599 b 696 785 392 703 533 785 b 1054 417 924 785 1054 642 l 1054 0 l 847 0 l 847 375 b 636 593 847 542 793 593 "},"i":{"ha":429,"x_min":0,"x_max":0,"o":"m 614 1058 l 614 888 l 111 888 l 111 1058 m 318 764 l 318 0 l 111 0 l 111 764 "},"j":{"ha":756,"x_min":0,"x_max":0,"o":"m 940 1058 l 940 888 l 438 888 l 438 1058 m 21 764 l 644 764 l 644 93 b 160 -286 644 -183 469 -286 l 160 -101 b 438 93 336 -101 438 -26 l 438 583 l 21 583 "},"k":{"ha":1117,"x_min":0,"x_max":0,"o":"m 506 403 l 318 308 l 318 0 l 111 0 l 111 1058 l 318 1058 l 318 510 l 825 764 l 1225 764 l 683 492 l 983 0 l 750 0 "},"l":{"ha":429,"x_min":0,"x_max":0,"o":"m 318 1058 l 318 0 l 111 0 l 111 1058 "},"m":{"ha":1797,"x_min":0,"x_max":0,"o":"m 597 593 b 318 500 508 593 379 547 l 318 0 l 111 0 l 111 764 l 318 764 l 318 600 b 676 785 386 696 524 785 b 992 568 833 785 949 704 b 1371 785 1050 675 1201 785 b 1707 431 1575 785 1707 650 l 1707 0 l 1500 0 l 1500 375 b 1292 593 1500 526 1446 593 b 1008 497 1200 593 1068 544 b 1013 431 1011 476 1013 454 l 1013 0 l 806 0 l 806 375 b 597 593 806 526 751 593 "},"n":{"ha":1144,"x_min":0,"x_max":0,"o":"m 636 593 b 318 500 533 593 389 554 l 318 0 l 111 0 l 111 764 l 318 764 l 318 599 b 696 785 392 703 533 785 b 1054 417 924 785 1054 642 l 1054 0 l 847 0 l 847 375 b 636 593 847 542 793 593 "},"o":{"ha":1169,"x_min":0,"x_max":0,"o":"m 1107 361 b 585 -18 1107 108 907 -18 b 63 361 263 -18 63 108 l 63 406 b 585 785 63 658 263 785 b 1107 406 907 785 1107 658 l 1107 361 m 911 406 b 585 600 911 536 782 600 b 258 406 388 600 258 536 l 258 361 b 585 167 258 231 388 167 b 911 361 782 167 911 231 "},"p":{"ha":1181,"x_min":0,"x_max":0,"o":"m 722 -18 b 318 164 538 -18 396 69 l 318 -286 l 111 -286 l 111 764 l 318 764 l 318 603 b 722 785 396 697 538 785 b 1118 406 954 785 1118 636 l 1118 361 b 722 -18 1118 131 954 -18 m 640 593 b 318 506 524 593 393 550 l 318 261 b 640 174 393 217 524 174 b 922 361 800 174 922 231 l 922 406 b 640 593 922 536 800 593 "},"q":{"ha":1181,"x_min":0,"x_max":0,"o":"m 1069 -286 l 863 -286 l 863 164 b 458 -18 785 69 643 -18 b 63 361 226 -18 63 131 l 63 406 b 458 785 63 636 226 785 b 863 603 643 785 785 697 l 863 764 l 1069 764 m 258 361 b 540 174 258 231 381 174 b 863 261 657 174 788 217 l 863 506 b 540 593 788 550 657 593 b 258 406 381 593 258 536 l 258 361 "},"r":{"ha":758,"x_min":0,"x_max":0,"o":"m 572 547 b 318 469 460 547 369 522 l 318 0 l 111 0 l 111 764 l 318 764 l 318 583 b 551 775 354 660 435 753 l 772 547 l 572 547 "},"s":{"ha":999,"x_min":0,"x_max":0,"o":"m 539 -18 b 51 288 274 -18 54 67 l 253 288 b 539 153 267 197 389 153 b 747 226 685 153 747 192 l 747 235 b 617 286 747 268 701 274 l 357 326 b 85 542 181 354 85 404 l 85 554 b 471 785 85 710 224 785 b 903 528 719 785 883 694 l 700 528 b 457 615 674 590 567 615 b 281 561 342 615 281 597 l 281 553 b 415 497 281 519 344 508 l 708 451 b 942 253 856 428 942 372 l 942 232 b 539 -18 942 60 800 -18 "},"t":{"ha":869,"x_min":0,"x_max":0,"o":"m 413 583 l 413 278 l 833 0 l 481 0 l 206 182 l 206 583 l 32 583 l 32 764 l 206 764 l 206 972 l 413 972 l 413 764 l 676 764 l 851 583 "},"u":{"ha":1117,"x_min":0,"x_max":0,"o":"m 799 168 b 443 -18 726 74 593 -18 b 90 350 221 -18 90 125 l 90 764 l 297 764 l 297 392 b 508 174 297 225 351 174 b 799 264 611 174 724 217 l 799 764 l 1006 764 l 1006 0 l 799 0 "},"v":{"ha":1075,"x_min":0,"x_max":0,"o":"m 707 0 l 368 0 l 14 764 l 253 764 l 538 117 l 822 764 l 1061 764 "},"w":{"ha":1372,"x_min":0,"x_max":0,"o":"m 686 407 l 532 0 l 179 0 l 31 764 l 250 764 l 371 118 l 686 868 l 1001 118 l 1122 764 l 1342 764 l 1193 0 l 840 0 "},"x":{"ha":1089,"x_min":0,"x_max":0,"o":"m 544 308 l 331 0 l 83 0 l 339 364 l 0 764 l 257 764 l 544 422 l 832 764 l 1089 764 l 750 364 l 1006 0 l 758 0 "},"y":{"ha":1024,"x_min":0,"x_max":0,"o":"m 1024 764 l 471 -286 l 233 -286 l 383 0 l 239 0 l 24 764 l 244 764 l 433 93 l 786 764 "},"z":{"ha":1011,"x_min":0,"x_max":0,"o":"m 158 0 l 158 181 l 638 583 l 53 583 l 53 764 l 888 764 l 888 583 l 408 181 l 979 181 l 979 0 "},"|":{"ha":407,"x_min":0,"x_max":0,"o":"m 172 -86 l 172 1058 l 235 1058 l 235 -86 "}," ":{"ha":486,"x_min":0,"x_max":0,"o":""},"¡":{"ha":804,"x_min":0,"x_max":0,"o":"m 97 764 l 707 764 l 707 564 l 97 564 m 297 482 l 507 482 l 507 -286 l 297 -286 "},"¢":{"ha":1160,"x_min":0,"x_max":0,"o":"m 1103 304 b 615 -18 1076 96 896 -11 l 615 -107 l 553 -107 l 553 -18 b 63 361 250 -10 63 117 l 63 406 b 553 785 63 650 250 776 l 553 1038 l 615 1038 l 615 785 b 1104 460 896 778 1078 669 l 903 460 b 615 600 872 547 767 594 l 615 167 b 901 304 764 172 871 218 l 1103 304 m 258 361 b 553 167 258 238 374 174 l 553 600 b 258 406 374 593 258 529 l 258 361 "},"£":{"ha":1744,"x_min":0,"x_max":0,"o":"m 1640 0 l 83 0 l 83 197 l 285 197 l 285 454 l 83 454 l 83 517 l 285 517 l 285 526 b 963 1000 285 856 544 1000 b 1638 583 1356 1000 1608 872 l 1422 583 b 963 807 1385 756 1175 807 b 497 526 728 807 497 744 l 497 517 l 1422 517 l 1422 454 l 497 454 l 497 197 l 1640 197 "},"¨":{"ha":581,"x_min":0,"x_max":0,"o":"m 0 1118 l 72 1118 l 72 832 l 0 832 m 581 972 l 581 903 l 294 903 l 294 972 "},"©":{"ha":942,"x_min":0,"x_max":0,"o":"m 838 342 b 471 -18 838 126 704 -18 b 104 342 238 -18 104 126 l 104 640 b 471 1000 104 856 238 1000 b 838 640 704 1000 838 856 m 778 640 b 471 942 778 819 667 942 b 164 640 275 942 164 819 l 164 342 b 471 40 164 163 275 40 b 778 342 667 40 778 163 m 471 218 b 263 422 333 218 263 301 l 263 561 b 471 765 263 681 333 765 b 681 569 607 765 678 685 l 561 569 b 471 647 557 615 525 647 b 381 561 414 647 381 613 l 381 422 b 471 335 381 371 414 335 b 561 413 525 335 557 365 l 681 413 b 471 218 678 297 607 218 "},"«":{"ha":808,"x_min":0,"x_max":0,"o":"m 407 -21 l 97 211 l 97 550 l 407 782 l 407 550 l 181 381 l 407 211 m 718 -21 l 408 211 l 408 550 l 718 782 l 718 550 l 492 381 l 718 211 "},"­":{"ha":789,"x_min":0,"x_max":0,"o":"m 97 317 l 97 515 l 692 515 l 692 317 "},"¯":{"ha":1064,"x_min":0,"x_max":0,"o":"m 1064 972 l 1064 903 l 0 903 l 0 972 "},"°":{"ha":793,"x_min":0,"x_max":0,"o":"m 396 1000 b 744 764 599 1000 744 938 l 744 728 b 396 492 744 554 599 492 b 49 728 193 492 49 554 l 49 764 b 396 1000 49 938 193 1000 m 396 628 b 582 732 490 628 582 640 l 582 760 b 396 864 582 851 490 864 b 213 760 304 864 213 851 l 213 732 b 396 628 213 640 304 628 "},"´":{"ha":1474,"x_min":0,"x_max":0,"o":"m 1474 1139 l 17 740 l 0 803 l 1457 1201 "},"·":{"ha":757,"x_min":0,"x_max":0,"o":"m 222 417 b 379 574 222 504 292 574 b 535 417 465 574 535 504 b 379 261 535 331 465 261 b 222 417 292 261 222 331 "},"¸":{"ha":250,"x_min":0,"x_max":0,"o":"m 203 -67 l 250 -114 l 47 -315 l 0 -269 "},"»":{"ha":808,"x_min":0,"x_max":0,"o":"m 90 -21 l 90 211 l 317 381 l 90 550 l 90 782 l 400 550 l 400 211 m 401 -21 l 401 211 l 628 381 l 401 550 l 401 782 l 711 550 l 711 211 "},"¿":{"ha":1106,"x_min":0,"x_max":0,"o":"m 392 764 l 1001 764 l 1001 564 l 392 564 m 976 -286 l 24 -286 b 472 211 24 -3 306 139 b 590 372 563 250 590 279 l 590 496 l 801 496 l 801 317 b 563 43 801 189 689 99 b 335 -89 483 8 400 -31 l 799 -89 l 821 47 l 1031 47 "},"À":{"ha":1515,"x_min":0,"x_max":0,"o":"m 1124 244 l 392 244 l 251 0 l 14 0 l 572 972 l 893 972 l -224 1278 l -207 1340 l 1250 942 l 1233 879 l 953 956 l 1501 0 l 1264 0 m 1014 436 l 758 882 l 501 436 "},"Á":{"ha":1515,"x_min":0,"x_max":0,"o":"m 1124 244 l 392 244 l 251 0 l 14 0 l 563 956 l 283 879 l 267 942 l 1724 1340 l 1740 1278 l 624 972 l 943 972 l 1501 0 l 1264 0 m 1014 436 l 758 882 l 501 436 "},"Â":{"ha":1515,"x_min":0,"x_max":0,"o":"m 757 1268 l 121 876 l 88 933 l 758 1342 l 1090 1142 l 1057 1083 m 1124 244 l 392 244 l 251 0 l 14 0 l 572 972 l 943 972 l 1501 0 l 1264 0 m 1014 436 l 758 882 l 501 436 "},"Ã":{"ha":1515,"x_min":0,"x_max":0,"o":"m 1279 1281 l 758 1001 l 649 1081 l 271 881 l 239 940 l 653 1160 l 763 1081 l 1247 1340 m 1124 244 l 392 244 l 251 0 l 14 0 l 572 972 l 943 972 l 1501 0 l 1264 0 m 1014 436 l 758 882 l 501 436 "},"Ä":{"ha":1515,"x_min":0,"x_max":0,"o":"m 581 1326 l 653 1326 l 653 1040 l 581 1040 m 1161 1181 l 1161 1111 l 875 1111 l 875 1181 m 1124 244 l 392 244 l 251 0 l 14 0 l 572 972 l 943 972 l 1501 0 l 1264 0 m 1014 436 l 758 882 l 501 436 "},"Å":{"ha":1515,"x_min":0,"x_max":0,"o":"m 1125 244 l 390 244 l 250 0 l 14 0 l 458 772 b 419 929 433 819 419 872 b 758 1269 419 1117 572 1269 b 1099 929 946 1269 1099 1117 b 1060 771 1099 872 1085 818 l 1501 0 l 1265 0 m 758 653 b 1036 929 913 653 1036 776 b 758 1207 1036 1083 913 1207 b 482 929 606 1207 482 1083 b 758 653 482 776 606 653 m 758 590 b 610 625 706 590 654 603 l 500 436 l 1015 436 l 907 625 b 758 590 863 603 811 590 "},"Æ":{"ha":2178,"x_min":0,"x_max":0,"o":"m 2101 0 l 1264 0 l 1124 244 l 392 244 l 251 0 l 14 0 l 572 972 l 2101 972 l 2101 775 l 1057 775 l 1163 590 l 1874 590 l 1874 397 l 1274 397 l 1388 197 l 2101 197 m 1014 436 l 758 882 l 501 436 "},"Ç":{"ha":1547,"x_min":0,"x_max":0,"o":"m 775 175 b 1260 389 997 175 1217 214 l 1476 389 b 775 -18 1443 96 1178 -18 b 69 456 343 -18 69 113 l 69 526 b 775 1000 69 869 343 1000 b 1478 583 1182 1000 1449 883 l 1263 583 b 775 807 1225 767 1001 807 b 282 526 526 807 282 758 l 282 456 b 775 175 282 224 526 175 m 853 -67 l 900 -114 l 697 -315 l 650 -269 "},"È":{"ha":1279,"x_min":0,"x_max":0,"o":"m 104 972 l 964 972 l -153 1278 l -136 1340 l 1321 942 l 1304 879 l 1203 907 l 1203 775 l 324 775 l 324 590 l 975 590 l 975 397 l 324 397 l 324 197 l 1203 197 l 1203 0 l 104 0 "},"É":{"ha":1279,"x_min":0,"x_max":0,"o":"m 315 972 l 1203 972 l 1203 775 l 324 775 l 324 590 l 975 590 l 975 397 l 324 397 l 324 197 l 1203 197 l 1203 0 l 104 0 l 104 914 l -25 879 l -42 942 l 1415 1340 l 1432 1278 "},"Ê":{"ha":1279,"x_min":0,"x_max":0,"o":"m 651 1268 l 171 972 l 1203 972 l 1203 775 l 324 775 l 324 590 l 975 590 l 975 397 l 324 397 l 324 197 l 1203 197 l 1203 0 l 104 0 l 104 931 l 15 876 l -18 933 l 653 1342 l 985 1142 l 951 1083 "},"Ë":{"ha":1279,"x_min":0,"x_max":0,"o":"m 475 1326 l 547 1326 l 547 1040 l 475 1040 m 1056 1181 l 1056 1111 l 769 1111 l 769 1181 m 104 972 l 1203 972 l 1203 775 l 324 775 l 324 590 l 975 590 l 975 397 l 324 397 l 324 197 l 1203 197 l 1203 0 l 104 0 "},"Ì":{"ha":1142,"x_min":0,"x_max":0,"o":"m 83 972 l 826 972 l -290 1278 l -274 1340 l 1183 942 l 1167 879 l 1058 908 l 1058 775 l 681 775 l 681 197 l 1058 197 l 1058 0 l 83 0 l 83 197 l 461 197 l 461 775 l 83 775 "},"Í":{"ha":1142,"x_min":0,"x_max":0,"o":"m 315 972 l 1058 972 l 1058 775 l 681 775 l 681 197 l 1058 197 l 1058 0 l 83 0 l 83 197 l 461 197 l 461 775 l 83 775 l 83 908 l -25 879 l -42 942 l 1415 1340 l 1432 1278 "},"Î":{"ha":1142,"x_min":0,"x_max":0,"o":"m 569 1268 l 89 972 l 1058 972 l 1058 775 l 681 775 l 681 197 l 1058 197 l 1058 0 l 83 0 l 83 197 l 461 197 l 461 775 l 83 775 l 83 968 l -67 876 l -100 933 l 571 1342 l 903 1142 l 869 1083 "},"Ï":{"ha":1142,"x_min":0,"x_max":0,"o":"m 393 1326 l 465 1326 l 465 1040 l 393 1040 m 974 1181 l 974 1111 l 688 1111 l 688 1181 m 83 972 l 1058 972 l 1058 775 l 681 775 l 681 197 l 1058 197 l 1058 0 l 83 0 l 83 197 l 461 197 l 461 775 l 83 775 "},"Ð":{"ha":1476,"x_min":0,"x_max":0,"o":"m 146 518 l 146 972 l 733 972 b 1407 507 1165 972 1407 850 l 1407 465 b 733 0 1407 122 1165 0 l 146 0 l 146 456 l -7 456 l -7 518 m 365 456 l 365 197 l 733 197 b 1194 465 982 197 1194 233 l 1194 507 b 733 775 1194 739 982 775 l 365 775 l 365 518 l 933 518 l 933 456 "},"Ñ":{"ha":1479,"x_min":0,"x_max":0,"o":"m 1375 0 l 1150 0 l 324 710 l 324 0 l 104 0 l 104 972 l 293 972 l 647 1160 l 757 1081 l 1242 1340 l 1274 1281 l 753 1001 l 643 1081 l 371 936 l 1156 261 l 1156 972 l 1375 972 "},"Ò":{"ha":1550,"x_min":0,"x_max":0,"o":"m 118 1278 l 135 1340 l 1592 942 l 1575 879 m 69 526 b 775 1000 69 869 343 1000 b 1481 526 1207 1000 1481 869 l 1481 456 b 775 -18 1481 113 1207 -18 b 69 456 343 -18 69 113 l 69 526 m 1268 526 b 775 807 1268 758 1024 807 b 282 526 526 807 282 758 l 282 456 b 775 175 282 224 526 175 b 1268 456 1024 175 1268 224 l 1268 526 "},"Ó":{"ha":1550,"x_min":0,"x_max":0,"o":"m 1432 1278 l -25 879 l -42 942 l 1415 1340 m 69 526 b 775 1000 69 869 343 1000 b 1481 526 1207 1000 1481 869 l 1481 456 b 775 -18 1481 113 1207 -18 b 69 456 343 -18 69 113 l 69 526 m 1268 526 b 775 807 1268 758 1024 807 b 282 526 526 807 282 758 l 282 456 b 775 175 282 224 526 175 b 1268 456 1024 175 1268 224 l 1268 526 "},"Ô":{"ha":1550,"x_min":0,"x_max":0,"o":"m 774 1268 l 138 876 l 104 933 l 775 1342 l 1107 1142 l 1074 1083 m 69 526 b 775 1000 69 869 343 1000 b 1481 526 1207 1000 1481 869 l 1481 456 b 775 -18 1481 113 1207 -18 b 69 456 343 -18 69 113 l 69 526 m 1268 526 b 775 807 1268 758 1024 807 b 282 526 526 807 282 758 l 282 456 b 775 175 282 224 526 175 b 1268 456 1024 175 1268 224 l 1268 526 "},"Õ":{"ha":1550,"x_min":0,"x_max":0,"o":"m 1040 1281 l 519 1001 l 410 1081 l 32 881 l 0 940 l 414 1160 l 524 1081 l 1008 1340 m 69 526 b 775 1000 69 869 343 1000 b 1481 526 1207 1000 1481 869 l 1481 456 b 775 -18 1481 113 1207 -18 b 69 456 343 -18 69 113 l 69 526 m 1268 526 b 775 807 1268 758 1024 807 b 282 526 526 807 282 758 l 282 456 b 775 175 282 224 526 175 b 1268 456 1024 175 1268 224 l 1268 526 "},"Ö":{"ha":1550,"x_min":0,"x_max":0,"o":"m 597 1326 l 669 1326 l 669 1040 l 597 1040 m 1178 1181 l 1178 1111 l 892 1111 l 892 1181 m 69 526 b 775 1000 69 869 343 1000 b 1481 526 1207 1000 1481 869 l 1481 456 b 775 -18 1481 113 1207 -18 b 69 456 343 -18 69 113 l 69 526 m 1268 526 b 775 807 1268 758 1024 807 b 282 526 526 807 282 758 l 282 456 b 775 175 282 224 526 175 b 1268 456 1024 175 1268 224 l 1268 526 "},"×":{"ha":826,"x_min":0,"x_max":0,"o":"m 182 606 l 226 649 l 414 461 l 601 649 l 646 606 l 457 417 l 646 228 l 601 185 l 414 372 l 226 185 l 182 228 l 371 417 "},"Ø":{"ha":1550,"x_min":0,"x_max":0,"o":"m 775 -18 b 419 22 640 -18 521 -6 l 207 -286 l 126 -286 l 354 44 b 69 456 174 114 69 244 l 69 526 b 775 1000 69 869 343 1000 b 1481 526 1207 1000 1481 869 l 1481 456 b 775 -18 1481 113 1207 -18 m 282 456 b 471 214 282 325 360 253 l 876 804 b 775 807 843 806 810 807 b 282 526 526 807 282 758 l 282 456 m 1268 526 b 953 796 1268 701 1128 772 l 539 196 b 775 175 611 181 693 175 b 1268 456 1024 175 1268 224 l 1268 526 "},"Ù":{"ha":1486,"x_min":0,"x_max":0,"o":"m 1392 478 b 743 -18 1392 101 1111 -18 b 94 478 378 -18 94 101 l 94 972 l 314 972 l 314 475 b 744 175 314 207 554 175 b 1172 475 935 175 1172 207 l 1172 972 l 54 1278 l 71 1340 l 1528 942 l 1511 879 l 1392 913 l 1392 478 "},"Ú":{"ha":1486,"x_min":0,"x_max":0,"o":"m 1392 478 b 743 -18 1392 101 1111 -18 b 94 478 378 -18 94 101 l 94 913 l -25 879 l -42 942 l 1415 1340 l 1432 1278 l 314 972 l 314 475 b 744 175 314 207 554 175 b 1172 475 935 175 1172 207 l 1172 972 l 1392 972 l 1392 478 "},"Û":{"ha":1486,"x_min":0,"x_max":0,"o":"m 1392 478 b 743 -18 1392 101 1111 -18 b 94 478 378 -18 94 101 l 94 939 l -8 876 l -42 933 l 629 1342 l 961 1142 l 928 1083 l 628 1268 l 147 972 l 314 972 l 314 475 b 744 175 314 207 554 175 b 1172 475 935 175 1172 207 l 1172 972 l 1392 972 l 1392 478 "},"Ü":{"ha":1486,"x_min":0,"x_max":0,"o":"m 565 1326 l 638 1326 l 638 1040 l 565 1040 m 1146 1181 l 1146 1111 l 860 1111 l 860 1181 m 314 475 b 744 175 314 207 554 175 b 1172 475 935 175 1172 207 l 1172 972 l 1392 972 l 1392 478 b 743 -18 1392 101 1111 -18 b 94 478 378 -18 94 101 l 94 972 l 314 972 l 314 475 "},"Ý":{"ha":1428,"x_min":0,"x_max":0,"o":"m 825 0 l 606 0 l 606 410 l -7 972 l 239 972 l 1585 1340 l 1601 1278 l 344 933 l 715 589 l 1126 972 l 1435 972 l 825 410 "},"Þ":{"ha":1325,"x_min":0,"x_max":0,"o":"m 321 139 l 321 0 l 104 0 l 104 972 l 321 972 l 321 833 l 890 833 b 1276 486 1131 833 1276 692 b 890 139 1276 281 1131 139 m 321 636 l 321 336 l 875 336 b 1060 486 996 336 1060 394 b 875 636 1060 578 996 636 "},"ß":{"ha":1239,"x_min":0,"x_max":0,"o":"m 821 -18 b 375 288 583 -19 378 67 l 576 288 b 821 153 590 197 699 151 b 988 219 939 154 988 192 l 988 228 b 857 286 988 261 942 267 l 681 326 b 408 542 504 367 408 404 l 408 554 b 753 785 408 710 533 785 l 793 785 l 536 886 b 318 764 400 886 318 851 l 318 0 l 111 0 l 111 764 b 469 1058 111 939 240 1058 l 703 1058 l 1079 672 b 1143 528 1118 632 1136 586 l 940 528 b 739 615 914 590 821 615 b 604 564 651 615 604 594 l 604 556 b 739 497 604 522 668 513 l 949 451 b 1182 253 1096 419 1182 372 l 1182 232 b 821 -18 1182 60 1054 -17 "},"à":{"ha":1110,"x_min":0,"x_max":0,"o":"m -426 1139 l -410 1201 l 1047 803 l 1031 740 m 819 149 b 439 -18 746 50 610 -18 b 100 222 231 -18 100 58 l 100 257 b 432 475 100 426 246 475 l 806 475 b 524 583 771 572 668 583 l 28 583 l 203 764 l 565 764 b 1026 317 907 764 1026 661 l 1026 0 l 819 0 m 488 164 b 819 244 601 164 746 199 l 819 317 l 439 317 b 297 253 349 317 297 307 l 297 239 b 488 164 297 178 375 164 "},"á":{"ha":1110,"x_min":0,"x_max":0,"o":"m 1538 1139 l 81 740 l 64 803 l 1521 1201 m 819 149 b 439 -18 746 50 610 -18 b 100 222 231 -18 100 58 l 100 257 b 432 475 100 426 246 475 l 806 475 b 524 583 771 572 668 583 l 28 583 l 203 764 l 565 764 b 1026 317 907 764 1026 661 l 1026 0 l 819 0 m 488 164 b 819 244 601 164 746 199 l 819 317 l 439 317 b 297 253 349 317 297 307 l 297 239 b 488 164 297 178 375 164 "},"â":{"ha":1110,"x_min":0,"x_max":0,"o":"m 554 1129 l -82 738 l -115 794 l 556 1203 l 888 1003 l 854 944 m 819 149 b 439 -18 746 50 610 -18 b 100 222 231 -18 100 58 l 100 257 b 432 475 100 426 246 475 l 806 475 b 524 583 771 572 668 583 l 28 583 l 203 764 l 565 764 b 1026 317 907 764 1026 661 l 1026 0 l 819 0 m 488 164 b 819 244 601 164 746 199 l 819 317 l 439 317 b 297 253 349 317 297 307 l 297 239 b 488 164 297 178 375 164 "},"ã":{"ha":1110,"x_min":0,"x_max":0,"o":"m 1076 1142 l 556 863 l 446 942 l 68 742 l 36 801 l 450 1021 l 560 942 l 1044 1201 m 819 149 b 439 -18 746 50 610 -18 b 100 222 231 -18 100 58 l 100 257 b 432 475 100 426 246 475 l 806 475 b 524 583 771 572 668 583 l 28 583 l 203 764 l 565 764 b 1026 317 907 764 1026 661 l 1026 0 l 819 0 m 488 164 b 819 244 601 164 746 199 l 819 317 l 439 317 b 297 253 349 317 297 307 l 297 239 b 488 164 297 178 375 164 "},"ä":{"ha":1110,"x_min":0,"x_max":0,"o":"m 378 1118 l 450 1118 l 450 832 l 378 832 m 958 972 l 958 903 l 672 903 l 672 972 m 819 149 b 439 -18 746 50 610 -18 b 100 222 231 -18 100 58 l 100 257 b 432 475 100 426 246 475 l 806 475 b 524 583 771 572 668 583 l 28 583 l 203 764 l 565 764 b 1026 317 907 764 1026 661 l 1026 0 l 819 0 m 488 164 b 819 244 601 164 746 199 l 819 317 l 439 317 b 297 253 349 317 297 307 l 297 239 b 488 164 297 178 375 164 "},"å":{"ha":1110,"x_min":0,"x_max":0,"o":"m 819 149 b 439 -18 746 50 610 -18 b 100 222 231 -18 100 58 l 100 257 b 432 475 100 426 246 475 l 806 475 b 524 583 771 572 668 583 l 28 583 l 203 764 l 360 764 b 217 1040 274 825 217 926 b 556 1381 217 1228 369 1381 b 896 1040 743 1381 896 1228 b 735 753 896 919 831 813 b 1026 317 947 717 1026 597 l 1026 0 l 819 0 m 279 1040 b 556 764 279 888 403 764 b 833 1040 710 764 833 888 b 556 1318 833 1194 710 1318 b 279 1040 403 1318 279 1194 m 488 164 b 819 244 601 164 746 199 l 819 317 l 439 317 b 297 253 349 317 297 307 l 297 239 b 488 164 297 178 375 164 "},"æ":{"ha":1826,"x_min":0,"x_max":0,"o":"m 1322 785 b 1785 399 1607 785 1785 654 l 1785 331 l 1029 331 b 1325 181 1044 222 1150 181 l 1649 181 l 1471 0 l 1332 0 b 1026 47 1207 0 1106 15 l 1026 0 l 819 0 l 819 149 b 439 -18 746 50 610 -18 b 100 222 231 -18 100 58 l 100 257 b 432 475 100 426 246 475 l 806 475 b 524 583 771 572 668 583 l 28 583 l 203 764 l 565 764 b 935 658 746 764 864 735 b 1322 785 1021 742 1156 785 m 1318 610 b 1042 475 1167 610 1076 558 l 1557 475 b 1318 610 1536 567 1454 610 m 488 164 b 819 244 601 164 746 199 l 819 317 l 439 317 b 297 253 349 317 297 307 l 297 239 b 488 164 297 178 375 164 "},"ç":{"ha":1167,"x_min":0,"x_max":0,"o":"m 585 167 b 901 304 750 167 868 213 l 1103 304 b 585 -18 1075 89 882 -18 b 63 361 263 -18 63 108 l 63 406 b 585 785 63 658 263 785 b 1104 460 883 785 1076 676 l 903 460 b 585 600 871 553 753 600 b 258 406 388 600 258 536 l 258 361 b 585 167 258 231 388 167 m 663 -67 l 710 -114 l 507 -315 l 460 -269 "},"è":{"ha":1058,"x_min":0,"x_max":0,"o":"m -428 1139 l -411 1201 l 1046 803 l 1029 740 m 554 785 b 1017 399 839 785 1017 654 l 1017 331 l 261 331 b 557 181 276 222 382 181 l 881 181 l 703 0 l 564 0 b 63 361 233 0 63 106 l 63 392 b 554 785 63 647 258 785 m 550 610 b 274 475 399 610 308 558 l 789 475 b 550 610 768 567 686 610 "},"é":{"ha":1058,"x_min":0,"x_max":0,"o":"m 1536 1139 l 79 740 l 63 803 l 1519 1201 m 554 785 b 1017 399 839 785 1017 654 l 1017 331 l 261 331 b 557 181 276 222 382 181 l 881 181 l 703 0 l 564 0 b 63 361 233 0 63 106 l 63 392 b 554 785 63 647 258 785 m 550 610 b 274 475 399 610 308 558 l 789 475 b 550 610 768 567 686 610 "},"ê":{"ha":1058,"x_min":0,"x_max":0,"o":"m 553 1129 l -83 738 l -117 794 l 554 1203 l 886 1003 l 853 944 m 554 785 b 1017 399 839 785 1017 654 l 1017 331 l 261 331 b 557 181 276 222 382 181 l 881 181 l 703 0 l 564 0 b 63 361 233 0 63 106 l 63 392 b 554 785 63 647 258 785 m 550 610 b 274 475 399 610 308 558 l 789 475 b 550 610 768 567 686 610 "},"ë":{"ha":1058,"x_min":0,"x_max":0,"o":"m 376 1118 l 449 1118 l 449 832 l 376 832 m 957 972 l 957 903 l 671 903 l 671 972 m 554 785 b 1017 399 839 785 1017 654 l 1017 331 l 261 331 b 557 181 276 222 382 181 l 881 181 l 703 0 l 564 0 b 63 361 233 0 63 106 l 63 392 b 554 785 63 647 258 785 m 550 610 b 274 475 399 610 308 558 l 789 475 b 550 610 768 567 686 610 "},"ì":{"ha":429,"x_min":0,"x_max":0,"o":"m -768 1139 l -751 1201 l 706 803 l 689 740 m 318 764 l 318 0 l 111 0 l 111 764 "},"í":{"ha":429,"x_min":0,"x_max":0,"o":"m 1196 1139 l -261 740 l -278 803 l 1179 1201 m 318 764 l 318 0 l 111 0 l 111 764 "},"î":{"ha":429,"x_min":0,"x_max":0,"o":"m 213 1129 l -424 738 l -457 794 l 214 1203 l 546 1003 l 513 944 m 318 764 l 318 0 l 111 0 l 111 764 "},"ï":{"ha":429,"x_min":0,"x_max":0,"o":"m 36 1118 l 108 1118 l 108 832 l 36 832 m 617 972 l 617 903 l 331 903 l 331 972 m 318 764 l 318 0 l 111 0 l 111 764 "},"ð":{"ha":1169,"x_min":0,"x_max":0,"o":"m 63 972 l 1390 972 l 1390 903 l 640 903 l 944 704 b 1107 406 1046 638 1107 542 l 1107 361 b 585 -18 1107 108 907 -18 b 63 361 263 -18 63 108 l 63 406 b 506 782 63 638 231 763 l 321 903 l 63 903 m 911 406 b 585 600 911 536 782 600 b 258 406 388 600 258 536 l 258 361 b 585 167 258 231 388 167 b 911 361 782 167 911 231 "},"ñ":{"ha":1144,"x_min":0,"x_max":0,"o":"m 636 593 b 318 500 533 593 389 554 l 318 0 l 111 0 l 111 750 l 94 742 l 63 801 l 476 1021 l 586 942 l 1071 1201 l 1103 1142 l 582 863 l 472 942 l 136 764 l 318 764 l 318 599 b 696 785 392 703 533 785 b 1054 417 924 785 1054 642 l 1054 0 l 847 0 l 847 375 b 636 593 847 542 793 593 "},"ò":{"ha":1169,"x_min":0,"x_max":0,"o":"m -397 1139 l -381 1201 l 1076 803 l 1060 740 m 1107 361 b 585 -18 1107 108 907 -18 b 63 361 263 -18 63 108 l 63 406 b 585 785 63 658 263 785 b 1107 406 907 785 1107 658 l 1107 361 m 911 406 b 585 600 911 536 782 600 b 258 406 388 600 258 536 l 258 361 b 585 167 258 231 388 167 b 911 361 782 167 911 231 "},"ó":{"ha":1169,"x_min":0,"x_max":0,"o":"m 1567 1139 l 110 740 l 93 803 l 1550 1201 m 1107 361 b 585 -18 1107 108 907 -18 b 63 361 263 -18 63 108 l 63 406 b 585 785 63 658 263 785 b 1107 406 907 785 1107 658 l 1107 361 m 911 406 b 585 600 911 536 782 600 b 258 406 388 600 258 536 l 258 361 b 585 167 258 231 388 167 b 911 361 782 167 911 231 "},"ô":{"ha":1169,"x_min":0,"x_max":0,"o":"m 583 1129 l -53 738 l -86 794 l 585 1203 l 917 1003 l 883 944 m 1107 361 b 585 -18 1107 108 907 -18 b 63 361 263 -18 63 108 l 63 406 b 585 785 63 658 263 785 b 1107 406 907 785 1107 658 l 1107 361 m 911 406 b 585 600 911 536 782 600 b 258 406 388 600 258 536 l 258 361 b 585 167 258 231 388 167 b 911 361 782 167 911 231 "},"õ":{"ha":1169,"x_min":0,"x_max":0,"o":"m 1106 1142 l 585 863 l 475 942 l 97 742 l 65 801 l 479 1021 l 589 942 l 1074 1201 m 1107 361 b 585 -18 1107 108 907 -18 b 63 361 263 -18 63 108 l 63 406 b 585 785 63 658 263 785 b 1107 406 907 785 1107 658 l 1107 361 m 911 406 b 585 600 911 536 782 600 b 258 406 388 600 258 536 l 258 361 b 585 167 258 231 388 167 b 911 361 782 167 911 231 "},"ö":{"ha":1169,"x_min":0,"x_max":0,"o":"m 407 1118 l 479 1118 l 479 832 l 407 832 m 988 972 l 988 903 l 701 903 l 701 972 m 1107 361 b 585 -18 1107 108 907 -18 b 63 361 263 -18 63 108 l 63 406 b 585 785 63 658 263 785 b 1107 406 907 785 1107 658 l 1107 361 m 911 406 b 585 600 911 536 782 600 b 258 406 388 600 258 536 l 258 361 b 585 167 258 231 388 167 b 911 361 782 167 911 231 "},"ø":{"ha":1169,"x_min":0,"x_max":0,"o":"m 585 -18 b 365 6 503 -18 429 -10 l 164 -286 l 83 -286 l 299 26 b 63 361 149 83 63 196 l 63 406 b 585 785 63 658 263 785 b 804 761 667 785 740 776 l 950 972 l 1031 972 l 871 740 b 1107 406 1021 683 1107 571 l 1107 361 b 585 -18 1107 108 907 -18 m 258 361 b 410 189 258 275 315 218 l 689 593 b 585 600 657 597 622 600 b 258 406 388 600 258 536 l 258 361 m 911 406 b 758 578 911 492 854 549 l 481 174 b 585 167 513 169 547 167 b 911 361 782 167 911 231 l 911 406 "},"ù":{"ha":1117,"x_min":0,"x_max":0,"o":"m -315 1139 l -299 1201 l 1158 803 l 1142 740 m 799 168 b 443 -18 726 74 593 -18 b 90 350 221 -18 90 125 l 90 764 l 297 764 l 297 392 b 508 174 297 225 351 174 b 799 264 611 174 724 217 l 799 764 l 1006 764 l 1006 0 l 799 0 "},"ú":{"ha":1117,"x_min":0,"x_max":0,"o":"m 1410 1139 l -47 740 l -64 803 l 1393 1201 m 799 168 b 443 -18 726 74 593 -18 b 90 350 221 -18 90 125 l 90 764 l 297 764 l 297 392 b 508 174 297 225 351 174 b 799 264 611 174 724 217 l 799 764 l 1006 764 l 1006 0 l 799 0 "},"û":{"ha":1117,"x_min":0,"x_max":0,"o":"m 546 1129 l -90 738 l -124 794 l 547 1203 l 879 1003 l 846 944 m 799 168 b 443 -18 726 74 593 -18 b 90 350 221 -18 90 125 l 90 764 l 297 764 l 297 392 b 508 174 297 225 351 174 b 799 264 611 174 724 217 l 799 764 l 1006 764 l 1006 0 l 799 0 "},"ü":{"ha":1117,"x_min":0,"x_max":0,"o":"m 369 1118 l 442 1118 l 442 832 l 369 832 m 950 972 l 950 903 l 664 903 l 664 972 m 799 168 b 443 -18 726 74 593 -18 b 90 350 221 -18 90 125 l 90 764 l 297 764 l 297 392 b 508 174 297 225 351 174 b 799 264 611 174 724 217 l 799 764 l 1006 764 l 1006 0 l 799 0 "},"ý":{"ha":1024,"x_min":0,"x_max":0,"o":"m 471 -286 l 233 -286 l 383 0 l 239 0 l 26 754 l -25 740 l -42 803 l 1415 1201 l 1432 1139 l 61 764 l 244 764 l 433 93 l 786 764 l 1024 764 "},"þ":{"ha":1181,"x_min":0,"x_max":0,"o":"m 722 -18 b 318 164 538 -18 396 69 l 318 -286 l 111 -286 l 111 1058 l 318 1058 l 318 603 b 722 785 396 697 538 785 b 1118 406 954 785 1118 636 l 1118 361 b 722 -18 1118 131 954 -18 m 640 593 b 318 506 524 593 393 550 l 318 261 b 640 174 393 217 524 174 b 922 361 800 174 922 231 l 922 406 b 640 593 922 536 800 593 "},"ÿ":{"ha":1024,"x_min":0,"x_max":0,"o":"m 338 1118 l 410 1118 l 410 832 l 338 832 m 918 972 l 918 903 l 632 903 l 632 972 m 1024 764 l 471 -286 l 233 -286 l 383 0 l 239 0 l 24 764 l 244 764 l 433 93 l 786 764 "},"Ă":{"ha":1515,"x_min":0,"x_max":0,"o":"m 606 1042 b 438 1203 479 1042 438 1104 l 510 1203 b 606 1111 510 1154 515 1111 l 911 1111 b 1007 1203 1001 1111 1007 1154 l 1007 1401 l 1079 1401 l 1079 1203 b 911 1042 1079 1104 1038 1042 m 1124 244 l 392 244 l 251 0 l 14 0 l 572 972 l 943 972 l 1501 0 l 1264 0 m 1014 436 l 758 882 l 501 436 "},"Ā":{"ha":1515,"x_min":0,"x_max":0,"o":"m 1515 1111 l 1515 1042 l 451 1042 l 451 1111 m 1124 244 l 392 244 l 251 0 l 14 0 l 572 972 l 943 972 l 1501 0 l 1264 0 m 1014 436 l 758 882 l 501 436 "},"Ą":{"ha":1515,"x_min":0,"x_max":0,"o":"m 1432 0 l 1264 0 l 1124 244 l 392 244 l 251 0 l 14 0 l 572 972 l 943 972 l 1501 0 l 1501 -286 l 1432 -286 m 1014 436 l 758 882 l 501 436 "},"Ć":{"ha":1547,"x_min":0,"x_max":0,"o":"m 1432 1278 l -25 879 l -42 942 l 1415 1340 m 775 175 b 1260 389 997 175 1217 214 l 1476 389 b 775 -18 1443 96 1178 -18 b 69 456 343 -18 69 113 l 69 526 b 775 1000 69 869 343 1000 b 1478 583 1182 1000 1449 883 l 1263 583 b 775 807 1225 767 1001 807 b 282 526 526 807 282 758 l 282 456 b 775 175 282 224 526 175 "},"Č":{"ha":1547,"x_min":0,"x_max":0,"o":"m 1476 389 b 775 -18 1443 96 1178 -18 b 69 456 343 -18 69 113 l 69 526 b 689 999 69 846 307 981 l 104 1354 l 138 1411 l 774 1019 l 1074 1204 l 1107 1146 l 861 999 b 1478 583 1219 982 1451 861 l 1263 583 b 775 807 1225 767 1001 807 b 282 526 526 807 282 758 l 282 456 b 775 175 282 224 526 175 b 1260 389 997 175 1217 214 l 1476 389 "},"Ĉ":{"ha":1547,"x_min":0,"x_max":0,"o":"m 774 1268 l 138 876 l 104 933 l 775 1342 l 1107 1142 l 1074 1083 m 775 175 b 1260 389 997 175 1217 214 l 1476 389 b 775 -18 1443 96 1178 -18 b 69 456 343 -18 69 113 l 69 526 b 775 1000 69 869 343 1000 b 1478 583 1182 1000 1449 883 l 1263 583 b 775 807 1225 767 1001 807 b 282 526 526 807 282 758 l 282 456 b 775 175 282 224 526 175 "},"Ċ":{"ha":1547,"x_min":0,"x_max":0,"o":"m 740 1326 l 810 1326 l 810 1040 l 740 1040 m 775 175 b 1260 389 997 175 1217 214 l 1476 389 b 775 -18 1443 96 1178 -18 b 69 456 343 -18 69 113 l 69 526 b 775 1000 69 869 343 1000 b 1478 583 1182 1000 1449 883 l 1263 583 b 775 807 1225 767 1001 807 b 282 526 526 807 282 758 l 282 456 b 775 175 282 224 526 175 "},"Ď":{"ha":1435,"x_min":0,"x_max":0,"o":"m 104 972 l 674 972 l 46 1354 l 79 1411 l 715 1019 l 1015 1204 l 1049 1146 l 758 971 b 1365 507 1149 958 1365 832 l 1365 465 b 692 0 1365 122 1124 0 l 104 0 m 324 775 l 324 197 l 692 197 b 1153 465 940 197 1153 233 l 1153 507 b 692 775 1153 739 940 775 "},"Đ":{"ha":1435,"x_min":0,"x_max":0,"o":"m 104 518 l 104 972 l 692 972 b 1365 507 1124 972 1365 850 l 1365 465 b 692 0 1365 122 1124 0 l 104 0 l 104 456 l -49 456 l -49 518 m 324 456 l 324 197 l 692 197 b 1153 465 940 197 1153 233 l 1153 507 b 692 775 1153 739 940 775 l 324 775 l 324 518 l 892 518 l 892 456 "},"Ĕ":{"ha":1279,"x_min":0,"x_max":0,"o":"m 500 1042 b 332 1203 374 1042 332 1104 l 404 1203 b 500 1111 404 1154 410 1111 l 806 1111 b 901 1203 896 1111 901 1154 l 901 1401 l 974 1401 l 974 1203 b 806 1042 974 1104 932 1042 m 104 972 l 1203 972 l 1203 775 l 324 775 l 324 590 l 975 590 l 975 397 l 324 397 l 324 197 l 1203 197 l 1203 0 l 104 0 "},"Ě":{"ha":1279,"x_min":0,"x_max":0,"o":"m 104 972 l 610 972 l -18 1354 l 15 1411 l 651 1019 l 951 1204 l 985 1146 l 697 972 l 1203 972 l 1203 775 l 324 775 l 324 590 l 975 590 l 975 397 l 324 397 l 324 197 l 1203 197 l 1203 0 l 104 0 "},"Ē":{"ha":1279,"x_min":0,"x_max":0,"o":"m 1410 1111 l 1410 1042 l 346 1042 l 346 1111 m 104 972 l 1203 972 l 1203 775 l 324 775 l 324 590 l 975 590 l 975 397 l 324 397 l 324 197 l 1203 197 l 1203 0 l 104 0 "},"Ę":{"ha":1279,"x_min":0,"x_max":0,"o":"m 324 397 l 324 197 l 1203 197 l 1203 -286 l 1133 -286 l 1133 0 l 104 0 l 104 972 l 1203 972 l 1203 775 l 324 775 l 324 590 l 975 590 l 975 397 "},"Ė":{"ha":1279,"x_min":0,"x_max":0,"o":"m 618 1326 l 688 1326 l 688 1040 l 618 1040 m 104 972 l 1203 972 l 1203 775 l 324 775 l 324 590 l 975 590 l 975 397 l 324 397 l 324 197 l 1203 197 l 1203 0 l 104 0 "},"Ğ":{"ha":1550,"x_min":0,"x_max":0,"o":"m 622 1042 b 454 1203 496 1042 454 1104 l 526 1203 b 622 1111 526 1154 532 1111 l 928 1111 b 1024 1203 1018 1111 1024 1154 l 1024 1401 l 1096 1401 l 1096 1203 b 928 1042 1096 1104 1054 1042 m 775 175 b 1263 397 1001 175 1224 215 l 525 397 l 525 590 l 1481 590 l 1481 456 b 775 -18 1481 113 1207 -18 b 69 456 343 -18 69 113 l 69 526 b 775 1000 69 869 343 1000 b 1456 689 1131 1000 1379 911 l 1208 689 b 775 807 1121 783 949 807 b 282 526 526 807 282 758 l 282 456 b 775 175 282 224 526 175 "},"Ĝ":{"ha":1550,"x_min":0,"x_max":0,"o":"m 774 1268 l 138 876 l 104 933 l 775 1342 l 1107 1142 l 1074 1083 m 775 175 b 1263 397 1001 175 1224 215 l 525 397 l 525 590 l 1481 590 l 1481 456 b 775 -18 1481 113 1207 -18 b 69 456 343 -18 69 113 l 69 526 b 775 1000 69 869 343 1000 b 1456 689 1131 1000 1379 911 l 1208 689 b 775 807 1121 783 949 807 b 282 526 526 807 282 758 l 282 456 b 775 175 282 224 526 175 "},"Ģ":{"ha":1550,"x_min":0,"x_max":0,"o":"m 775 175 b 1263 397 1001 175 1224 215 l 525 397 l 525 590 l 1481 590 l 1481 456 b 775 -18 1481 113 1207 -18 b 69 456 343 -18 69 113 l 69 526 b 775 1000 69 869 343 1000 b 1456 689 1131 1000 1379 911 l 1208 689 b 775 807 1121 783 949 807 b 282 526 526 807 282 758 l 282 456 b 775 175 282 224 526 175 m 965 -71 l 1086 -71 l 740 -286 l 619 -286 "},"Ġ":{"ha":1550,"x_min":0,"x_max":0,"o":"m 740 1326 l 810 1326 l 810 1040 l 740 1040 m 775 175 b 1263 397 1001 175 1224 215 l 525 397 l 525 590 l 1481 590 l 1481 456 b 775 -18 1481 113 1207 -18 b 69 456 343 -18 69 113 l 69 526 b 775 1000 69 869 343 1000 b 1456 689 1131 1000 1379 911 l 1208 689 b 775 807 1121 783 949 807 b 282 526 526 807 282 758 l 282 456 b 775 175 282 224 526 175 "},"Ħ":{"ha":1590,"x_min":0,"x_max":0,"o":"m 1239 393 l 351 393 l 351 0 l 132 0 l 132 751 l -21 751 l -21 814 l 132 814 l 132 972 l 351 972 l 351 814 l 1239 814 l 1239 972 l 1458 972 l 1458 814 l 1611 814 l 1611 751 l 1458 751 l 1458 0 l 1239 0 m 1239 594 l 1239 751 l 351 751 l 351 594 "},"Ĥ":{"ha":1535,"x_min":0,"x_max":0,"o":"m 1211 393 l 324 393 l 324 0 l 104 0 l 104 929 l 18 876 l -15 933 l 656 1342 l 988 1142 l 954 1083 l 654 1268 l 174 972 l 324 972 l 324 594 l 1211 594 l 1211 972 l 1431 972 l 1431 0 l 1211 0 "},"Ĭ":{"ha":1142,"x_min":0,"x_max":0,"o":"m 418 1042 b 250 1203 292 1042 250 1104 l 322 1203 b 418 1111 322 1154 328 1111 l 724 1111 b 819 1203 814 1111 819 1154 l 819 1401 l 892 1401 l 892 1203 b 724 1042 892 1104 850 1042 m 83 972 l 1058 972 l 1058 775 l 681 775 l 681 197 l 1058 197 l 1058 0 l 83 0 l 83 197 l 461 197 l 461 775 l 83 775 "},"İ":{"ha":1142,"x_min":0,"x_max":0,"o":"m 536 1326 l 606 1326 l 606 1040 l 536 1040 m 83 972 l 1058 972 l 1058 775 l 681 775 l 681 197 l 1058 197 l 1058 0 l 83 0 l 83 197 l 461 197 l 461 775 l 83 775 "},"Ī":{"ha":1142,"x_min":0,"x_max":0,"o":"m 1328 1111 l 1328 1042 l 264 1042 l 264 1111 m 83 972 l 1058 972 l 1058 775 l 681 775 l 681 197 l 1058 197 l 1058 0 l 83 0 l 83 197 l 461 197 l 461 775 l 83 775 "},"Į":{"ha":1142,"x_min":0,"x_max":0,"o":"m 83 972 l 1058 972 l 1058 775 l 681 775 l 681 197 l 1058 197 l 1058 -286 l 989 -286 l 989 0 l 83 0 l 83 197 l 461 197 l 461 775 l 83 775 "},"Ĩ":{"ha":1142,"x_min":0,"x_max":0,"o":"m 190 972 l 1058 972 l 1058 775 l 681 775 l 681 197 l 1058 197 l 1058 0 l 83 0 l 83 197 l 461 197 l 461 775 l 83 775 l 83 915 l 17 881 l -15 940 l 399 1160 l 508 1081 l 993 1340 l 1025 1281 l 504 1001 l 394 1081 "},"Ị":{"ha":1142,"x_min":0,"x_max":0,"o":"m 83 972 l 1058 972 l 1058 775 l 681 775 l 681 197 l 1058 197 l 1058 0 l 83 0 l 83 197 l 461 197 l 461 775 l 83 775 m 536 -68 l 606 -68 l 606 -286 l 536 -286 "},"Ĵ":{"ha":1399,"x_min":0,"x_max":0,"o":"m 892 1268 l 256 876 l 222 933 l 893 1342 l 1225 1142 l 1192 1083 m 482 972 l 1304 972 l 1304 478 b 656 -18 1301 101 1024 -18 b 14 389 319 -18 61 82 l 235 389 b 657 179 285 199 489 179 b 1085 475 847 179 1085 207 l 1085 775 l 482 775 "},"Ķ":{"ha":1413,"x_min":0,"x_max":0,"o":"m 629 510 l 324 339 l 324 0 l 104 0 l 104 972 l 324 972 l 324 560 l 1060 972 l 1454 972 l 815 614 l 1225 0 l 969 0 m 699 -71 l 819 -71 l 474 -286 l 353 -286 "},"Ĺ":{"ha":1168,"x_min":0,"x_max":0,"o":"m 1196 1278 l -261 879 l -278 942 l 1179 1340 m 1106 0 l 104 0 l 104 972 l 324 972 l 324 197 l 1106 197 "},"Ľ":{"ha":1168,"x_min":0,"x_max":0,"o":"m 1106 0 l 104 0 l 104 972 l 324 972 l 324 197 l 1106 197 m 463 972 l 532 972 l 532 686 l 463 686 "},"Ļ":{"ha":1168,"x_min":0,"x_max":0,"o":"m 1106 0 l 104 0 l 104 972 l 324 972 l 324 197 l 1106 197 m 657 -71 l 778 -71 l 432 -286 l 311 -286 "},"Ŀ":{"ha":1168,"x_min":0,"x_max":0,"o":"m 1106 0 l 104 0 l 104 972 l 324 972 l 324 197 l 1106 197 m 753 747 l 822 747 l 822 461 l 753 461 "},"Ł":{"ha":1168,"x_min":0,"x_max":0,"o":"m 1106 0 l 104 0 l 104 132 l -183 -286 l -264 -286 l 104 249 l 104 972 l 324 972 l 324 567 l 603 972 l 683 972 l 324 450 l 324 197 l 1106 197 "},"Ŋ":{"ha":1479,"x_min":0,"x_max":0,"o":"m 1375 972 l 1375 0 l 1156 -314 l 1156 0 l 1150 0 l 324 710 l 324 0 l 104 0 l 104 972 l 329 972 l 1156 261 l 1156 972 "},"Ń":{"ha":1479,"x_min":0,"x_max":0,"o":"m 1375 0 l 1150 0 l 324 710 l 324 0 l 104 0 l 104 972 l 289 972 l 1635 1340 l 1651 1278 l 379 929 l 1156 261 l 1156 972 l 1375 972 "},"Ň":{"ha":1479,"x_min":0,"x_max":0,"o":"m 739 946 l 68 1354 l 101 1411 l 738 1019 l 1038 1204 l 1071 1146 m 1375 0 l 1150 0 l 324 710 l 324 0 l 104 0 l 104 972 l 329 972 l 1156 261 l 1156 972 l 1375 972 "},"Ņ":{"ha":1479,"x_min":0,"x_max":0,"o":"m 1375 0 l 1150 0 l 324 710 l 324 0 l 104 0 l 104 972 l 329 972 l 1156 261 l 1156 972 l 1375 972 m 790 -71 l 911 -71 l 565 -286 l 444 -286 "},"Œ":{"ha":2436,"x_min":0,"x_max":0,"o":"m 2360 0 l 1261 0 l 1261 74 b 775 -18 1140 10 975 -18 b 69 456 343 -18 69 113 l 69 526 b 775 1000 69 869 343 1000 b 1261 908 975 1000 1140 972 l 1261 972 l 2360 972 l 2360 775 l 1481 775 l 1481 590 l 2132 590 l 2132 397 l 1481 397 l 1481 197 l 2360 197 m 282 456 b 775 175 282 224 526 175 b 1261 392 999 175 1219 214 l 1261 590 b 775 807 1219 768 999 807 b 282 526 526 807 282 758 l 282 456 "},"Ŏ":{"ha":1550,"x_min":0,"x_max":0,"o":"m 622 1042 b 454 1203 496 1042 454 1104 l 526 1203 b 622 1111 526 1154 532 1111 l 928 1111 b 1024 1203 1018 1111 1024 1154 l 1024 1401 l 1096 1401 l 1096 1203 b 928 1042 1096 1104 1054 1042 m 69 526 b 775 1000 69 869 343 1000 b 1481 526 1207 1000 1481 869 l 1481 456 b 775 -18 1481 113 1207 -18 b 69 456 343 -18 69 113 l 69 526 m 1268 526 b 775 807 1268 758 1024 807 b 282 526 526 807 282 758 l 282 456 b 775 175 282 224 526 175 b 1268 456 1024 175 1268 224 l 1268 526 "},"Ő":{"ha":1550,"x_min":0,"x_max":0,"o":"m 1432 1278 l -25 879 l -42 942 l 1415 1340 m 1432 1142 l 1088 1047 l 1071 1110 l 1415 1204 m 69 526 b 775 1000 69 869 343 1000 b 1481 526 1207 1000 1481 869 l 1481 456 b 775 -18 1481 113 1207 -18 b 69 456 343 -18 69 113 l 69 526 m 1268 526 b 775 807 1268 758 1024 807 b 282 526 526 807 282 758 l 282 456 b 775 175 282 224 526 175 b 1268 456 1024 175 1268 224 l 1268 526 "},"Ō":{"ha":1550,"x_min":0,"x_max":0,"o":"m 1532 1111 l 1532 1042 l 468 1042 l 468 1111 m 69 526 b 775 1000 69 869 343 1000 b 1481 526 1207 1000 1481 869 l 1481 456 b 775 -18 1481 113 1207 -18 b 69 456 343 -18 69 113 l 69 526 m 1268 526 b 775 807 1268 758 1024 807 b 282 526 526 807 282 758 l 282 456 b 775 175 282 224 526 175 b 1268 456 1024 175 1268 224 l 1268 526 "},"Ọ":{"ha":1550,"x_min":0,"x_max":0,"o":"m 69 526 b 775 1000 69 869 343 1000 b 1481 526 1207 1000 1481 869 l 1481 456 b 775 -18 1481 113 1207 -18 b 69 456 343 -18 69 113 l 69 526 m 1268 526 b 775 807 1268 758 1024 807 b 282 526 526 807 282 758 l 282 456 b 775 175 282 224 526 175 b 1268 456 1024 175 1268 224 l 1268 526 m 740 -68 l 810 -68 l 810 -286 l 740 -286 "},"Ŕ":{"ha":1599,"x_min":0,"x_max":0,"o":"m 104 972 l 383 972 l 1729 1340 l 1746 1278 l 629 972 l 1081 972 b 1424 686 1293 972 1424 865 b 1081 406 1424 493 1293 424 l 824 382 l 1654 0 l 1215 0 l 457 350 l 324 338 l 324 0 l 104 0 m 324 775 l 324 522 l 1094 592 b 1207 686 1161 597 1207 624 b 1094 775 1207 750 1161 775 "},"Ř":{"ha":1599,"x_min":0,"x_max":0,"o":"m 104 972 l 721 972 l 93 1354 l 126 1411 l 763 1019 l 1063 1204 l 1096 1146 l 808 972 l 1081 972 b 1424 686 1293 972 1424 865 b 1081 406 1424 493 1293 424 l 824 382 l 1654 0 l 1215 0 l 457 350 l 324 338 l 324 0 l 104 0 m 324 775 l 324 522 l 1094 592 b 1207 686 1161 597 1207 624 b 1094 775 1207 750 1161 775 "},"Ŗ":{"ha":1599,"x_min":0,"x_max":0,"o":"m 104 972 l 1081 972 b 1424 686 1293 972 1424 865 b 1081 406 1424 493 1293 424 l 824 382 l 1654 0 l 1215 0 l 457 350 l 324 338 l 324 0 l 104 0 m 324 775 l 324 522 l 1094 592 b 1207 686 1161 597 1207 624 b 1094 775 1207 750 1161 775 m 815 -71 l 936 -71 l 590 -286 l 469 -286 "},"Ś":{"ha":1346,"x_min":0,"x_max":0,"o":"m 1206 1278 l -251 879 l -268 942 l 1189 1340 m 468 450 b 90 722 243 483 90 574 l 90 760 b 390 972 90 919 199 972 l 811 972 l 1007 775 l 297 775 b 582 631 297 697 399 658 l 1001 567 b 1304 321 1196 538 1304 457 l 1304 261 b 722 -18 1304 81 1101 -18 b 53 389 350 -18 63 104 l 267 389 b 721 179 296 229 483 179 b 1090 276 999 181 1090 217 l 1090 296 b 946 378 1090 346 1043 363 l 468 450 "},"Š":{"ha":1346,"x_min":0,"x_max":0,"o":"m 1304 261 b 722 -18 1304 81 1101 -18 b 53 389 350 -18 63 104 l 267 389 b 721 179 296 229 483 179 b 1090 276 999 181 1090 217 l 1090 296 b 946 378 1090 346 1043 363 l 468 450 b 90 722 243 483 90 574 l 90 760 b 390 972 90 919 199 972 l 543 972 l -85 1354 l -51 1411 l 585 1019 l 885 1204 l 918 1146 l 631 972 l 811 972 l 1007 775 l 297 775 b 582 631 297 697 399 658 l 1001 567 b 1304 321 1196 538 1304 457 l 1304 261 "},"Ş":{"ha":1346,"x_min":0,"x_max":0,"o":"m 468 450 b 90 722 243 483 90 574 l 90 760 b 390 972 90 919 199 972 l 811 972 l 1007 775 l 297 775 b 582 631 297 697 399 658 l 1001 567 b 1304 321 1196 538 1304 457 l 1304 261 b 722 -18 1304 81 1101 -18 b 53 389 350 -18 63 104 l 267 389 b 721 179 296 229 483 179 b 1090 276 999 181 1090 217 l 1090 296 b 946 378 1090 346 1043 363 l 468 450 m 800 -67 l 847 -114 l 644 -315 l 597 -269 "},"Ŝ":{"ha":1346,"x_min":0,"x_max":0,"o":"m 585 1268 l -51 876 l -85 933 l 586 1342 l 918 1142 l 885 1083 m 468 450 b 90 722 243 483 90 574 l 90 760 b 390 972 90 919 199 972 l 811 972 l 1007 775 l 297 775 b 582 631 297 697 399 658 l 1001 567 b 1304 321 1196 538 1304 457 l 1304 261 b 722 -18 1304 81 1101 -18 b 53 389 350 -18 63 104 l 267 389 b 721 179 296 229 483 179 b 1090 276 999 181 1090 217 l 1090 296 b 946 378 1090 346 1043 363 l 468 450 "},"Ș":{"ha":1346,"x_min":0,"x_max":0,"o":"m 468 450 b 90 722 243 483 90 574 l 90 760 b 390 972 90 919 199 972 l 811 972 l 1007 775 l 297 775 b 582 631 297 697 399 658 l 1001 567 b 1304 321 1196 538 1304 457 l 1304 261 b 722 -18 1304 81 1101 -18 b 53 389 350 -18 63 104 l 267 389 b 721 179 296 229 483 179 b 1090 276 999 181 1090 217 l 1090 296 b 946 378 1090 346 1043 363 l 468 450 m 774 -71 l 894 -71 l 549 -286 l 428 -286 "},"Ŧ":{"ha":1378,"x_min":0,"x_max":0,"o":"m 49 972 l 1329 972 l 1329 775 l 799 775 l 799 517 l 1385 517 l 1385 454 l 799 454 l 799 0 l 579 0 l 579 454 l -7 454 l -7 517 l 579 517 l 579 775 l 49 775 "},"Ť":{"ha":1378,"x_min":0,"x_max":0,"o":"m 733 972 l 1329 972 l 1329 775 l 799 775 l 799 0 l 579 0 l 579 775 l 49 775 l 49 972 l 646 972 l 18 1354 l 51 1411 l 688 1019 l 988 1204 l 1021 1146 "},"Ţ":{"ha":1378,"x_min":0,"x_max":0,"o":"m 49 972 l 1329 972 l 1329 775 l 799 775 l 799 0 l 579 0 l 579 775 l 49 775 m 740 -71 l 861 -71 l 515 -286 l 394 -286 "},"Ț":{"ha":1378,"x_min":0,"x_max":0,"o":"m 49 972 l 1329 972 l 1329 775 l 799 775 l 799 0 l 579 0 l 579 775 l 49 775 m 740 -71 l 861 -71 l 515 -286 l 394 -286 "},"Ŭ":{"ha":1486,"x_min":0,"x_max":0,"o":"m 590 1042 b 422 1203 464 1042 422 1104 l 494 1203 b 590 1111 494 1154 500 1111 l 896 1111 b 992 1203 986 1111 992 1154 l 992 1401 l 1064 1401 l 1064 1203 b 896 1042 1064 1104 1022 1042 m 314 475 b 744 175 314 207 554 175 b 1172 475 935 175 1172 207 l 1172 972 l 1392 972 l 1392 478 b 743 -18 1392 101 1111 -18 b 94 478 378 -18 94 101 l 94 972 l 314 972 l 314 475 "},"Ű":{"ha":1486,"x_min":0,"x_max":0,"o":"m 1392 478 b 743 -18 1392 101 1111 -18 b 94 478 378 -18 94 101 l 94 972 l 265 972 l 1611 1340 l 1628 1278 l 314 918 l 314 475 b 744 175 314 207 554 175 b 1172 475 935 175 1172 207 l 1172 972 l 1392 972 l 1392 478 m 1628 1142 l 1283 1047 l 1267 1110 l 1611 1204 "},"Ū":{"ha":1486,"x_min":0,"x_max":0,"o":"m 1500 1111 l 1500 1042 l 436 1042 l 436 1111 m 314 475 b 744 175 314 207 554 175 b 1172 475 935 175 1172 207 l 1172 972 l 1392 972 l 1392 478 b 743 -18 1392 101 1111 -18 b 94 478 378 -18 94 101 l 94 972 l 314 972 l 314 475 "},"Ų":{"ha":1486,"x_min":0,"x_max":0,"o":"m 1392 478 b 967 0 1392 182 1219 46 l 967 -286 l 897 -286 l 897 -10 b 743 -18 849 -15 796 -18 b 94 478 378 -18 94 101 l 94 972 l 314 972 l 314 475 b 744 175 314 207 554 175 b 1172 475 935 175 1172 207 l 1172 972 l 1392 972 l 1392 478 "},"Ů":{"ha":1486,"x_min":0,"x_max":0,"o":"m 1083 929 b 743 590 1083 743 931 590 b 404 929 557 590 404 743 b 743 1269 404 1117 557 1269 b 1083 929 931 1269 1083 1117 m 467 929 b 743 653 467 776 590 653 b 1021 929 897 653 1021 776 b 743 1207 1021 1083 897 1207 b 467 929 590 1207 467 1083 m 314 475 b 744 175 314 207 554 175 b 1172 475 935 175 1172 207 l 1172 972 l 1392 972 l 1392 478 b 743 -18 1392 101 1111 -18 b 94 478 378 -18 94 101 l 94 972 l 314 972 l 314 475 "},"Ũ":{"ha":1486,"x_min":0,"x_max":0,"o":"m 1392 478 b 743 -18 1392 101 1111 -18 b 94 478 378 -18 94 101 l 94 972 l 283 972 l 638 1160 l 747 1081 l 1232 1340 l 1264 1281 l 743 1001 l 633 1081 l 314 911 l 314 475 b 744 175 314 207 554 175 b 1172 475 935 175 1172 207 l 1172 972 l 1392 972 l 1392 478 "},"Ụ":{"ha":1486,"x_min":0,"x_max":0,"o":"m 314 475 b 744 175 314 207 554 175 b 1172 475 935 175 1172 207 l 1172 972 l 1392 972 l 1392 478 b 743 -18 1392 101 1111 -18 b 94 478 378 -18 94 101 l 94 972 l 314 972 l 314 475 m 708 -68 l 778 -68 l 778 -286 l 708 -286 "},"Ẃ":{"ha":1714,"x_min":0,"x_max":0,"o":"m 1839 1278 l 382 879 l 365 942 l 1822 1340 m 857 549 l 640 0 l 253 0 l 58 972 l 286 972 l 463 89 l 733 764 l 981 764 l 1251 89 l 1428 972 l 1656 972 l 1461 0 l 1074 0 "},"Ŵ":{"ha":1714,"x_min":0,"x_max":0,"o":"m 857 549 l 640 0 l 253 0 l 58 972 l 250 972 l 857 1342 l 1189 1142 l 1156 1083 l 856 1268 l 296 924 l 463 89 l 733 764 l 981 764 l 1251 89 l 1428 972 l 1656 972 l 1461 0 l 1074 0 "},"Ẅ":{"ha":1714,"x_min":0,"x_max":0,"o":"m 679 1326 l 751 1326 l 751 1040 l 679 1040 m 1260 1181 l 1260 1111 l 974 1111 l 974 1181 m 857 549 l 640 0 l 253 0 l 58 972 l 286 972 l 463 89 l 733 764 l 981 764 l 1251 89 l 1428 972 l 1656 972 l 1461 0 l 1074 0 "},"Ẁ":{"ha":1714,"x_min":0,"x_max":0,"o":"m -125 1278 l -108 1340 l 1349 942 l 1332 879 m 857 549 l 640 0 l 253 0 l 58 972 l 286 972 l 463 89 l 733 764 l 981 764 l 1251 89 l 1428 972 l 1656 972 l 1461 0 l 1074 0 "},"Ŷ":{"ha":1428,"x_min":0,"x_max":0,"o":"m 825 0 l 606 0 l 606 410 l -7 972 l 258 972 l 868 1343 l 1200 1143 l 1167 1085 l 867 1269 l 335 942 l 715 589 l 1126 972 l 1435 972 l 825 410 "},"Ÿ":{"ha":1428,"x_min":0,"x_max":0,"o":"m 538 1326 l 610 1326 l 610 1040 l 538 1040 m 1118 1181 l 1118 1111 l 832 1111 l 832 1181 m 825 0 l 606 0 l 606 410 l -7 972 l 303 972 l 715 589 l 1126 972 l 1435 972 l 825 410 "},"Ỳ":{"ha":1428,"x_min":0,"x_max":0,"o":"m 825 0 l 606 0 l 606 410 l -7 972 l 303 972 l 715 589 l 1082 932 l -183 1278 l -167 1340 l 1179 972 l 1435 972 l 825 410 "},"Ȳ":{"ha":1428,"x_min":0,"x_max":0,"o":"m 1472 1111 l 1472 1042 l 408 1042 l 408 1111 m 825 0 l 606 0 l 606 410 l -7 972 l 303 972 l 715 589 l 1126 972 l 1435 972 l 825 410 "},"Ź":{"ha":1376,"x_min":0,"x_max":0,"o":"m 1335 0 l 160 0 l 160 197 l 917 775 l 35 775 l 35 972 l 251 972 l 1597 1340 l 1614 1278 l 497 972 l 1229 972 l 1229 775 l 472 197 l 1335 197 "},"Ž":{"ha":1376,"x_min":0,"x_max":0,"o":"m 1335 0 l 160 0 l 160 197 l 917 775 l 35 775 l 35 972 l 589 972 l -39 1354 l -6 1411 l 631 1019 l 931 1204 l 964 1146 l 676 972 l 1229 972 l 1229 775 l 472 197 l 1335 197 "},"Ż":{"ha":1376,"x_min":0,"x_max":0,"o":"m 597 1326 l 667 1326 l 667 1040 l 597 1040 m 1335 0 l 160 0 l 160 197 l 917 775 l 35 775 l 35 972 l 1229 972 l 1229 775 l 472 197 l 1335 197 "},"Ə":{"ha":1550,"x_min":0,"x_max":0,"o":"m 1481 456 b 775 -18 1481 113 1207 -18 b 69 456 343 -18 69 113 l 69 526 b 74 592 69 549 71 571 l 1261 592 b 775 779 1218 763 999 779 l 315 779 l 501 972 l 775 972 b 1481 526 1225 972 1481 869 l 1481 456 m 775 175 b 1263 400 1003 175 1226 215 l 288 400 b 775 175 324 215 547 175 "},"ă":{"ha":1110,"x_min":0,"x_max":0,"o":"m 403 903 b 235 1064 276 903 235 965 l 307 1064 b 403 972 307 1015 313 972 l 708 972 b 804 1064 799 972 804 1015 l 804 1263 l 876 1263 l 876 1064 b 708 903 876 965 835 903 m 819 149 b 439 -18 746 50 610 -18 b 100 222 231 -18 100 58 l 100 257 b 432 475 100 426 246 475 l 806 475 b 524 583 771 572 668 583 l 28 583 l 203 764 l 565 764 b 1026 317 907 764 1026 661 l 1026 0 l 819 0 m 488 164 b 819 244 601 164 746 199 l 819 317 l 439 317 b 297 253 349 317 297 307 l 297 239 b 488 164 297 178 375 164 "},"ā":{"ha":1110,"x_min":0,"x_max":0,"o":"m 1313 972 l 1313 903 l 249 903 l 249 972 m 819 149 b 439 -18 746 50 610 -18 b 100 222 231 -18 100 58 l 100 257 b 432 475 100 426 246 475 l 806 475 b 524 583 771 572 668 583 l 28 583 l 203 764 l 565 764 b 1026 317 907 764 1026 661 l 1026 0 l 819 0 m 488 164 b 819 244 601 164 746 199 l 819 317 l 439 317 b 297 253 349 317 297 307 l 297 239 b 488 164 297 178 375 164 "},"ą":{"ha":1110,"x_min":0,"x_max":0,"o":"m 957 0 l 819 0 l 819 149 b 439 -18 746 50 610 -18 b 100 222 231 -18 100 58 l 100 257 b 432 475 100 426 246 475 l 806 475 b 524 583 771 572 668 583 l 28 583 l 203 764 l 565 764 b 1026 317 907 764 1026 661 l 1026 -286 l 957 -286 m 488 164 b 819 244 601 164 746 199 l 819 317 l 439 317 b 297 253 349 317 297 307 l 297 239 b 488 164 297 178 375 164 "},"ć":{"ha":1167,"x_min":0,"x_max":0,"o":"m 1567 1139 l 110 740 l 93 803 l 1550 1201 m 585 167 b 901 304 750 167 868 213 l 1103 304 b 585 -18 1075 89 882 -18 b 63 361 263 -18 63 108 l 63 406 b 585 785 63 658 263 785 b 1104 460 883 785 1076 676 l 903 460 b 585 600 871 553 753 600 b 258 406 388 600 258 536 l 258 361 b 585 167 258 231 388 167 "},"č":{"ha":1167,"x_min":0,"x_max":0,"o":"m 1103 304 b 585 -18 1075 89 882 -18 b 63 361 263 -18 63 108 l 63 406 b 511 782 63 639 232 764 l -86 1146 l -53 1203 l 583 811 l 883 996 l 917 938 l 660 782 b 1104 460 915 765 1079 658 l 903 460 b 585 600 871 553 753 600 b 258 406 388 600 258 536 l 258 361 b 585 167 258 231 388 167 b 901 304 750 167 868 213 l 1103 304 "},"ĉ":{"ha":1167,"x_min":0,"x_max":0,"o":"m 583 1129 l -53 738 l -86 794 l 585 1203 l 917 1003 l 883 944 m 585 167 b 901 304 750 167 868 213 l 1103 304 b 585 -18 1075 89 882 -18 b 63 361 263 -18 63 108 l 63 406 b 585 785 63 658 263 785 b 1104 460 883 785 1076 676 l 903 460 b 585 600 871 553 753 600 b 258 406 388 600 258 536 l 258 361 b 585 167 258 231 388 167 "},"ċ":{"ha":1167,"x_min":0,"x_max":0,"o":"m 550 1118 l 619 1118 l 619 832 l 550 832 m 585 167 b 901 304 750 167 868 213 l 1103 304 b 585 -18 1075 89 882 -18 b 63 361 263 -18 63 108 l 63 406 b 585 785 63 658 263 785 b 1104 460 883 785 1076 676 l 903 460 b 585 600 871 553 753 600 b 258 406 388 600 258 536 l 258 361 b 585 167 258 231 388 167 "},"ď":{"ha":1181,"x_min":0,"x_max":0,"o":"m 863 164 b 458 -18 785 69 643 -18 b 63 361 226 -18 63 131 l 63 406 b 458 785 63 636 226 785 b 863 603 643 785 785 697 l 863 1058 l 1069 1058 l 1069 0 l 863 0 m 1139 1058 l 1208 1058 l 1208 772 l 1139 772 m 258 361 b 540 174 258 231 381 174 b 863 261 657 174 788 217 l 863 506 b 540 593 788 550 657 593 b 258 406 381 593 258 536 l 258 361 "},"đ":{"ha":1181,"x_min":0,"x_max":0,"o":"m 863 164 b 458 -18 785 69 643 -18 b 63 361 226 -18 63 131 l 63 406 b 458 785 63 636 226 785 b 863 603 643 785 785 697 l 863 903 l -147 903 l -147 972 l 863 972 l 863 1058 l 1069 1058 l 1069 972 l 1181 972 l 1181 903 l 1069 903 l 1069 0 l 863 0 m 258 361 b 540 174 258 231 381 174 b 863 261 657 174 788 217 l 863 506 b 540 593 788 550 657 593 b 258 406 381 593 258 536 l 258 361 "},"ĕ":{"ha":1058,"x_min":0,"x_max":0,"o":"m 401 903 b 233 1064 275 903 233 965 l 306 1064 b 401 972 306 1015 311 972 l 707 972 b 803 1064 797 972 803 1015 l 803 1263 l 875 1263 l 875 1064 b 707 903 875 965 833 903 m 554 785 b 1017 399 839 785 1017 654 l 1017 331 l 261 331 b 557 181 276 222 382 181 l 881 181 l 703 0 l 564 0 b 63 361 233 0 63 106 l 63 392 b 554 785 63 647 258 785 m 550 610 b 274 475 399 610 308 558 l 789 475 b 550 610 768 567 686 610 "},"ě":{"ha":1058,"x_min":0,"x_max":0,"o":"m 628 782 b 1017 399 869 761 1017 632 l 1017 331 l 261 331 b 557 181 276 222 382 181 l 881 181 l 703 0 l 564 0 b 63 361 233 0 63 106 l 63 392 b 482 782 63 625 226 761 l -117 1146 l -83 1203 l 553 811 l 853 996 l 886 938 m 550 610 b 274 475 399 610 308 558 l 789 475 b 550 610 768 567 686 610 "},"ē":{"ha":1058,"x_min":0,"x_max":0,"o":"m 1311 972 l 1311 903 l 247 903 l 247 972 m 554 785 b 1017 399 839 785 1017 654 l 1017 331 l 261 331 b 557 181 276 222 382 181 l 881 181 l 703 0 l 564 0 b 63 361 233 0 63 106 l 63 392 b 554 785 63 647 258 785 m 550 610 b 274 475 399 610 308 558 l 789 475 b 550 610 768 567 686 610 "},"ę":{"ha":1058,"x_min":0,"x_max":0,"o":"m 554 785 b 1017 399 839 785 1017 654 l 1017 331 l 261 331 b 557 181 276 222 382 181 l 881 181 l 393 -314 l 349 -269 l 615 0 l 564 0 b 63 361 233 0 63 106 l 63 392 b 554 785 63 647 258 785 m 550 610 b 274 475 399 610 308 558 l 789 475 b 550 610 768 567 686 610 "},"ė":{"ha":1058,"x_min":0,"x_max":0,"o":"m 519 1118 l 589 1118 l 589 832 l 519 832 m 554 785 b 1017 399 839 785 1017 654 l 1017 331 l 261 331 b 557 181 276 222 382 181 l 881 181 l 703 0 l 564 0 b 63 361 233 0 63 106 l 63 392 b 554 785 63 647 258 785 m 550 610 b 274 475 399 610 308 558 l 789 475 b 550 610 768 567 686 610 "},"ğ":{"ha":1153,"x_min":0,"x_max":0,"o":"m 424 903 b 256 1064 297 903 256 965 l 328 1064 b 424 972 328 1015 333 972 l 729 972 b 825 1064 819 972 825 1015 l 825 1263 l 897 1263 l 897 1064 b 729 903 897 965 856 903 m 1042 96 b 496 -286 1042 -181 842 -286 l 189 -286 l 17 -108 l 501 -108 b 835 96 699 -108 835 -44 l 835 163 b 444 -18 760 69 628 -18 b 63 361 228 -18 63 138 l 63 406 b 444 785 63 631 228 785 b 835 604 628 785 760 697 l 835 764 l 1042 764 l 1042 96 m 258 361 b 526 174 258 238 382 174 b 835 261 642 174 763 215 l 835 506 b 526 593 763 551 642 593 b 258 406 382 593 258 529 l 258 361 "},"ĝ":{"ha":1153,"x_min":0,"x_max":0,"o":"m 575 1129 l -61 738 l -94 794 l 576 1203 l 908 1003 l 875 944 m 1042 96 b 496 -286 1042 -181 842 -286 l 189 -286 l 17 -108 l 501 -108 b 835 96 699 -108 835 -44 l 835 163 b 444 -18 760 69 628 -18 b 63 361 228 -18 63 138 l 63 406 b 444 785 63 631 228 785 b 835 604 628 785 760 697 l 835 764 l 1042 764 l 1042 96 m 258 361 b 526 174 258 238 382 174 b 835 261 642 174 763 215 l 835 506 b 526 593 763 551 642 593 b 258 406 382 593 258 529 l 258 361 "},"ģ":{"ha":1153,"x_min":0,"x_max":0,"o":"m 944 1215 l 1065 1215 l 453 835 l 332 835 m 1042 96 b 496 -286 1042 -181 842 -286 l 189 -286 l 17 -108 l 501 -108 b 835 96 699 -108 835 -44 l 835 163 b 444 -18 760 69 628 -18 b 63 361 228 -18 63 138 l 63 406 b 444 785 63 631 228 785 b 835 604 628 785 760 697 l 835 764 l 1042 764 l 1042 96 m 258 361 b 526 174 258 238 382 174 b 835 261 642 174 763 215 l 835 506 b 526 593 763 551 642 593 b 258 406 382 593 258 529 l 258 361 "},"ġ":{"ha":1153,"x_min":0,"x_max":0,"o":"m 542 1118 l 611 1118 l 611 832 l 542 832 m 1042 96 b 496 -286 1042 -181 842 -286 l 189 -286 l 17 -108 l 501 -108 b 835 96 699 -108 835 -44 l 835 163 b 444 -18 760 69 628 -18 b 63 361 228 -18 63 138 l 63 406 b 444 785 63 631 228 785 b 835 604 628 785 760 697 l 835 764 l 1042 764 l 1042 96 m 258 361 b 526 174 258 238 382 174 b 835 261 642 174 763 215 l 835 506 b 526 593 763 551 642 593 b 258 406 382 593 258 529 l 258 361 "},"ħ":{"ha":1144,"x_min":0,"x_max":0,"o":"m 636 593 b 318 500 533 593 389 554 l 318 0 l 111 0 l 111 903 l 0 903 l 0 972 l 111 972 l 111 1058 l 318 1058 l 318 972 l 1328 972 l 1328 903 l 318 903 l 318 599 b 696 785 392 703 533 785 b 1054 417 924 785 1054 642 l 1054 0 l 847 0 l 847 375 b 636 593 847 542 793 593 "},"ĥ":{"ha":1144,"x_min":0,"x_max":0,"o":"m 636 593 b 318 500 533 593 389 554 l 318 0 l 111 0 l 111 1054 l -65 946 l -99 1003 l 572 1411 l 904 1211 l 871 1153 l 571 1338 l 118 1058 l 318 1058 l 318 599 b 696 785 392 703 533 785 b 1054 417 924 785 1054 642 l 1054 0 l 847 0 l 847 375 b 636 593 847 542 793 593 "},"ı":{"ha":429,"x_min":0,"x_max":0,"o":"m 318 764 l 318 0 l 111 0 l 111 764 "},"ĭ":{"ha":429,"x_min":0,"x_max":0,"o":"m 61 903 b -107 1064 -65 903 -107 965 l -35 1064 b 61 972 -35 1015 -29 972 l 367 972 b 463 1064 457 972 463 1015 l 463 1263 l 535 1263 l 535 1064 b 367 903 535 965 493 903 m 318 764 l 318 0 l 111 0 l 111 764 "},"ī":{"ha":429,"x_min":0,"x_max":0,"o":"m 971 972 l 971 903 l -93 903 l -93 972 m 318 764 l 318 0 l 111 0 l 111 764 "},"į":{"ha":429,"x_min":0,"x_max":0,"o":"m 614 1058 l 614 888 l 111 888 l 111 1058 m 249 0 l 111 0 l 111 764 l 318 764 l 318 -286 l 249 -286 "},"ĩ":{"ha":429,"x_min":0,"x_max":0,"o":"m 735 1142 l 214 863 l 104 942 l -274 742 l -306 801 l 108 1021 l 218 942 l 703 1201 m 318 764 l 318 0 l 111 0 l 111 764 "},"ị":{"ha":429,"x_min":0,"x_max":0,"o":"m 614 1058 l 614 888 l 111 888 l 111 1058 m 318 764 l 318 0 l 111 0 l 111 764 m 179 -68 l 249 -68 l 249 -286 l 179 -286 "},"ȷ":{"ha":756,"x_min":0,"x_max":0,"o":"m 21 764 l 644 764 l 644 93 b 160 -286 644 -183 469 -286 l 160 -101 b 438 93 336 -101 438 -26 l 438 583 l 21 583 "},"ĵ":{"ha":756,"x_min":0,"x_max":0,"o":"m 539 1129 l -97 738 l -131 794 l 540 1203 l 872 1003 l 839 944 m 21 764 l 644 764 l 644 93 b 160 -286 644 -183 469 -286 l 160 -101 b 438 93 336 -101 438 -26 l 438 583 l 21 583 "},"ķ":{"ha":1117,"x_min":0,"x_max":0,"o":"m 506 403 l 318 308 l 318 0 l 111 0 l 111 1058 l 318 1058 l 318 510 l 825 764 l 1225 764 l 683 492 l 983 0 l 750 0 m 585 -71 l 706 -71 l 360 -286 l 239 -286 "},"ĺ":{"ha":429,"x_min":0,"x_max":0,"o":"m 1196 1433 l -261 1035 l -278 1097 l 1179 1496 m 318 1058 l 318 0 l 111 0 l 111 1058 "},"ľ":{"ha":429,"x_min":0,"x_max":0,"o":"m 318 1058 l 318 0 l 111 0 l 111 1058 m 388 1058 l 457 1058 l 457 772 l 388 772 "},"ļ":{"ha":429,"x_min":0,"x_max":0,"o":"m 318 1058 l 318 0 l 111 0 l 111 1058 m 265 -71 l 386 -71 l 40 -286 l -81 -286 "},"ŀ":{"ha":499,"x_min":0,"x_max":0,"o":"m 318 1058 l 318 0 l 111 0 l 111 1058 m 429 747 l 499 747 l 499 461 l 429 461 "},"ł":{"ha":429,"x_min":0,"x_max":0,"o":"m 111 322 l -308 -286 l -389 -286 l 111 440 l 111 1058 l 318 1058 l 318 740 l 478 972 l 558 972 l 318 624 l 318 0 l 111 0 "},"ŋ":{"ha":1144,"x_min":0,"x_max":0,"o":"m 696 785 b 1054 417 924 785 1054 642 l 1054 -18 l 847 -314 l 847 375 b 636 593 847 542 793 593 b 318 500 533 593 389 554 l 318 0 l 111 0 l 111 764 l 318 764 l 318 599 b 696 785 392 703 533 785 "},"ń":{"ha":1144,"x_min":0,"x_max":0,"o":"m 636 593 b 318 500 533 593 389 554 l 318 0 l 111 0 l 111 761 l 38 740 l 21 803 l 1478 1201 l 1494 1139 l 124 764 l 318 764 l 318 599 b 696 785 392 703 533 785 b 1054 417 924 785 1054 642 l 1054 0 l 847 0 l 847 375 b 636 593 847 542 793 593 "},"ň":{"ha":1144,"x_min":0,"x_max":0,"o":"m 636 593 b 318 500 533 593 389 554 l 318 0 l 111 0 l 111 764 l 318 764 l 318 599 b 544 760 368 668 449 728 l -89 1146 l -56 1203 l 581 811 l 881 996 l 914 938 l 658 783 b 696 785 671 785 683 785 b 1054 417 924 785 1054 642 l 1054 0 l 847 0 l 847 375 b 636 593 847 542 793 593 "},"ņ":{"ha":1144,"x_min":0,"x_max":0,"o":"m 636 593 b 318 500 533 593 389 554 l 318 0 l 111 0 l 111 764 l 318 764 l 318 599 b 696 785 392 703 533 785 b 1054 417 924 785 1054 642 l 1054 0 l 847 0 l 847 375 b 636 593 847 542 793 593 m 633 -71 l 754 -71 l 408 -286 l 288 -286 "},"œ":{"ha":1907,"x_min":0,"x_max":0,"o":"m 1403 785 b 1865 399 1688 785 1865 654 l 1865 331 l 1110 331 b 1406 181 1125 222 1231 181 l 1729 181 l 1551 0 l 1413 0 b 1007 110 1225 0 1089 33 b 585 -18 917 25 772 -18 b 63 361 263 -18 63 108 l 63 406 b 585 785 63 658 263 785 b 1011 653 775 785 922 740 b 1403 785 1097 740 1233 785 m 1399 610 b 1122 475 1247 610 1157 558 l 1638 475 b 1399 610 1617 567 1535 610 m 911 406 b 585 600 911 536 782 600 b 258 406 388 600 258 536 l 258 361 b 585 167 258 231 388 167 b 911 361 782 167 911 231 "},"ŏ":{"ha":1169,"x_min":0,"x_max":0,"o":"m 432 903 b 264 1064 306 903 264 965 l 336 1064 b 432 972 336 1015 342 972 l 738 972 b 833 1064 828 972 833 1015 l 833 1263 l 906 1263 l 906 1064 b 738 903 906 965 864 903 m 1107 361 b 585 -18 1107 108 907 -18 b 63 361 263 -18 63 108 l 63 406 b 585 785 63 658 263 785 b 1107 406 907 785 1107 658 l 1107 361 m 911 406 b 585 600 911 536 782 600 b 258 406 388 600 258 536 l 258 361 b 585 167 258 231 388 167 b 911 361 782 167 911 231 "},"ő":{"ha":1169,"x_min":0,"x_max":0,"o":"m 1567 1139 l 110 740 l 93 803 l 1550 1201 m 1567 1003 l 835 801 l 818 864 l 1550 1065 m 1107 361 b 585 -18 1107 108 907 -18 b 63 361 263 -18 63 108 l 63 406 b 585 785 63 658 263 785 b 1107 406 907 785 1107 658 l 1107 361 m 911 406 b 585 600 911 536 782 600 b 258 406 388 600 258 536 l 258 361 b 585 167 258 231 388 167 b 911 361 782 167 911 231 "},"ō":{"ha":1169,"x_min":0,"x_max":0,"o":"m 1342 972 l 1342 903 l 278 903 l 278 972 m 1107 361 b 585 -18 1107 108 907 -18 b 63 361 263 -18 63 108 l 63 406 b 585 785 63 658 263 785 b 1107 406 907 785 1107 658 l 1107 361 m 911 406 b 585 600 911 536 782 600 b 258 406 388 600 258 536 l 258 361 b 585 167 258 231 388 167 b 911 361 782 167 911 231 "},"ọ":{"ha":1169,"x_min":0,"x_max":0,"o":"m 1107 361 b 585 -18 1107 108 907 -18 b 63 361 263 -18 63 108 l 63 406 b 585 785 63 658 263 785 b 1107 406 907 785 1107 658 l 1107 361 m 911 406 b 585 600 911 536 782 600 b 258 406 388 600 258 536 l 258 361 b 585 167 258 231 388 167 b 911 361 782 167 911 231 m 550 -68 l 619 -68 l 619 -286 l 550 -286 "},"ŕ":{"ha":758,"x_min":0,"x_max":0,"o":"m 1354 1139 l -103 740 l -119 803 l 1338 1201 m 572 547 b 318 469 460 547 369 522 l 318 0 l 111 0 l 111 764 l 318 764 l 318 583 b 551 775 354 660 435 753 l 772 547 l 572 547 "},"ř":{"ha":758,"x_min":0,"x_max":0,"o":"m 372 738 l -299 1146 l -265 1203 l 371 811 l 671 996 l 704 938 m 572 547 b 318 469 460 547 369 522 l 318 0 l 111 0 l 111 764 l 318 764 l 318 583 b 551 775 354 660 435 753 l 772 547 l 572 547 "},"ŗ":{"ha":758,"x_min":0,"x_max":0,"o":"m 572 547 b 318 469 460 547 369 522 l 318 0 l 111 0 l 111 764 l 318 764 l 318 583 b 551 775 354 660 435 753 l 772 547 l 572 547 m 265 -71 l 386 -71 l 40 -286 l -81 -286 "},"ś":{"ha":999,"x_min":0,"x_max":0,"o":"m 1453 1139 l -4 740 l -21 803 l 1436 1201 m 539 -18 b 51 288 274 -18 54 67 l 253 288 b 539 153 267 197 389 153 b 747 226 685 153 747 192 l 747 235 b 617 286 747 268 701 274 l 357 326 b 85 542 181 354 85 404 l 85 554 b 471 785 85 710 224 785 b 903 528 719 785 883 694 l 700 528 b 457 615 674 590 567 615 b 281 561 342 615 281 597 l 281 553 b 415 497 281 519 344 508 l 708 451 b 942 253 856 428 942 372 l 942 232 b 539 -18 942 60 800 -18 "},"š":{"ha":999,"x_min":0,"x_max":0,"o":"m 942 232 b 539 -18 942 60 800 -18 b 51 288 274 -18 54 67 l 253 288 b 539 153 267 197 389 153 b 747 226 685 153 747 192 l 747 235 b 617 286 747 268 701 274 l 357 326 b 85 542 181 354 85 404 l 85 554 b 397 782 85 693 196 768 l -200 1146 l -167 1203 l 469 811 l 769 996 l 803 938 l 544 782 b 903 528 751 765 885 678 l 700 528 b 457 615 674 590 567 615 b 281 561 342 615 281 597 l 281 553 b 415 497 281 519 344 508 l 708 451 b 942 253 856 428 942 372 l 942 232 "},"ş":{"ha":999,"x_min":0,"x_max":0,"o":"m 539 -18 b 51 288 274 -18 54 67 l 253 288 b 539 153 267 197 389 153 b 747 226 685 153 747 192 l 747 235 b 617 286 747 268 701 274 l 357 326 b 85 542 181 354 85 404 l 85 554 b 471 785 85 710 224 785 b 903 528 719 785 883 694 l 700 528 b 457 615 674 590 567 615 b 281 561 342 615 281 597 l 281 553 b 415 497 281 519 344 508 l 708 451 b 942 253 856 428 942 372 l 942 232 b 539 -18 942 60 800 -18 m 617 -67 l 664 -114 l 461 -315 l 414 -269 "},"ŝ":{"ha":999,"x_min":0,"x_max":0,"o":"m 469 1129 l -167 738 l -200 794 l 471 1203 l 803 1003 l 769 944 m 539 -18 b 51 288 274 -18 54 67 l 253 288 b 539 153 267 197 389 153 b 747 226 685 153 747 192 l 747 235 b 617 286 747 268 701 274 l 357 326 b 85 542 181 354 85 404 l 85 554 b 471 785 85 710 224 785 b 903 528 719 785 883 694 l 700 528 b 457 615 674 590 567 615 b 281 561 342 615 281 597 l 281 553 b 415 497 281 519 344 508 l 708 451 b 942 253 856 428 942 372 l 942 232 b 539 -18 942 60 800 -18 "},"ș":{"ha":999,"x_min":0,"x_max":0,"o":"m 539 -18 b 51 288 274 -18 54 67 l 253 288 b 539 153 267 197 389 153 b 747 226 685 153 747 192 l 747 235 b 617 286 747 268 701 274 l 357 326 b 85 542 181 354 85 404 l 85 554 b 471 785 85 710 224 785 b 903 528 719 785 883 694 l 700 528 b 457 615 674 590 567 615 b 281 561 342 615 281 597 l 281 553 b 415 497 281 519 344 508 l 708 451 b 942 253 856 428 942 372 l 942 232 b 539 -18 942 60 800 -18 m 590 -71 l 711 -71 l 365 -286 l 244 -286 "},"ŧ":{"ha":869,"x_min":0,"x_max":0,"o":"m 413 396 l 413 278 l 833 0 l 481 0 l 206 182 l 206 396 l 32 396 l 32 465 l 206 465 l 206 583 l 32 583 l 32 764 l 206 764 l 206 972 l 413 972 l 413 764 l 676 764 l 851 583 l 413 583 l 413 465 l 1304 465 l 1304 396 "},"ť":{"ha":869,"x_min":0,"x_max":0,"o":"m 482 1100 l 551 1100 l 551 814 l 482 814 m 413 583 l 413 278 l 833 0 l 481 0 l 206 182 l 206 583 l 32 583 l 32 764 l 206 764 l 206 972 l 413 972 l 413 764 l 676 764 l 851 583 "},"ţ":{"ha":869,"x_min":0,"x_max":0,"o":"m 413 583 l 413 278 l 833 0 l 481 0 l 206 182 l 206 583 l 32 583 l 32 764 l 206 764 l 206 972 l 413 972 l 413 764 l 676 764 l 851 583 m 708 -71 l 829 -71 l 483 -286 l 363 -286 "},"ț":{"ha":869,"x_min":0,"x_max":0,"o":"m 413 583 l 413 278 l 833 0 l 481 0 l 206 182 l 206 583 l 32 583 l 32 764 l 206 764 l 206 972 l 413 972 l 413 764 l 676 764 l 851 583 m 708 -71 l 829 -71 l 483 -286 l 363 -286 "},"ŭ":{"ha":1117,"x_min":0,"x_max":0,"o":"m 394 903 b 226 1064 268 903 226 965 l 299 1064 b 394 972 299 1015 304 972 l 700 972 b 796 1064 790 972 796 1015 l 796 1263 l 868 1263 l 868 1064 b 700 903 868 965 826 903 m 799 168 b 443 -18 726 74 593 -18 b 90 350 221 -18 90 125 l 90 764 l 297 764 l 297 392 b 508 174 297 225 351 174 b 799 264 611 174 724 217 l 799 764 l 1006 764 l 1006 0 l 799 0 "},"ű":{"ha":1117,"x_min":0,"x_max":0,"o":"m 799 168 b 443 -18 726 74 593 -18 b 90 350 221 -18 90 125 l 90 746 l 72 740 l 56 803 l 1513 1201 l 1529 1139 l 158 764 l 297 764 l 297 392 b 508 174 297 225 351 174 b 799 264 611 174 724 217 l 799 764 l 1006 764 l 1006 0 l 799 0 m 1529 1003 l 797 801 l 781 864 l 1513 1065 "},"ū":{"ha":1117,"x_min":0,"x_max":0,"o":"m 1304 972 l 1304 903 l 240 903 l 240 972 m 799 168 b 443 -18 726 74 593 -18 b 90 350 221 -18 90 125 l 90 764 l 297 764 l 297 392 b 508 174 297 225 351 174 b 799 264 611 174 724 217 l 799 764 l 1006 764 l 1006 0 l 799 0 "},"ų":{"ha":1117,"x_min":0,"x_max":0,"o":"m 936 0 l 799 0 l 799 168 b 443 -18 726 74 593 -18 b 90 350 221 -18 90 125 l 90 764 l 297 764 l 297 392 b 508 174 297 225 351 174 b 799 264 611 174 724 217 l 799 764 l 1006 764 l 1006 -286 l 936 -286 "},"ů":{"ha":1117,"x_min":0,"x_max":0,"o":"m 888 1040 b 547 701 888 854 735 701 b 208 1040 361 701 208 854 b 547 1381 208 1228 361 1381 b 888 1040 735 1381 888 1228 m 271 1040 b 547 764 271 888 394 764 b 825 1040 701 764 825 888 b 547 1318 825 1194 701 1318 b 271 1040 394 1318 271 1194 m 799 168 b 443 -18 726 74 593 -18 b 90 350 221 -18 90 125 l 90 764 l 297 764 l 297 392 b 508 174 297 225 351 174 b 799 264 611 174 724 217 l 799 764 l 1006 764 l 1006 0 l 799 0 "},"ũ":{"ha":1117,"x_min":0,"x_max":0,"o":"m 799 168 b 443 -18 726 74 593 -18 b 90 350 221 -18 90 125 l 90 758 l 60 742 l 28 801 l 442 1021 l 551 942 l 1036 1201 l 1068 1142 l 547 863 l 438 942 l 101 764 l 297 764 l 297 392 b 508 174 297 225 351 174 b 799 264 611 174 724 217 l 799 764 l 1006 764 l 1006 0 l 799 0 "},"ụ":{"ha":1117,"x_min":0,"x_max":0,"o":"m 799 168 b 443 -18 726 74 593 -18 b 90 350 221 -18 90 125 l 90 764 l 297 764 l 297 392 b 508 174 297 225 351 174 b 799 264 611 174 724 217 l 799 764 l 1006 764 l 1006 0 l 799 0 m 513 -68 l 582 -68 l 582 -286 l 513 -286 "},"ẃ":{"ha":1372,"x_min":0,"x_max":0,"o":"m 686 407 l 532 0 l 179 0 l 31 764 l 204 764 l 194 803 l 1651 1201 l 1668 1139 l 253 751 l 371 118 l 686 868 l 1001 118 l 1122 764 l 1342 764 l 1193 0 l 840 0 "},"ŵ":{"ha":1372,"x_min":0,"x_max":0,"o":"m 686 407 l 532 0 l 179 0 l 31 764 l 33 764 l 15 794 l 686 1203 l 1018 1003 l 985 944 l 685 1129 l 92 764 l 250 764 l 371 118 l 686 868 l 1001 118 l 1122 764 l 1342 764 l 1193 0 l 840 0 "},"ẅ":{"ha":1372,"x_min":0,"x_max":0,"o":"m 508 1118 l 581 1118 l 581 832 l 508 832 m 1089 972 l 1089 903 l 803 903 l 803 972 m 686 407 l 532 0 l 179 0 l 31 764 l 250 764 l 371 118 l 686 868 l 1001 118 l 1122 764 l 1342 764 l 1193 0 l 840 0 "},"ẁ":{"ha":1372,"x_min":0,"x_max":0,"o":"m 686 407 l 532 0 l 179 0 l 31 764 l 250 764 l 371 118 l 686 868 l 1001 118 l 1119 751 l -296 1139 l -279 1201 l 1178 803 l 1168 764 l 1342 764 l 1193 0 l 840 0 "},"ŷ":{"ha":1024,"x_min":0,"x_max":0,"o":"m 514 1129 l -122 738 l -156 794 l 515 1203 l 847 1003 l 814 944 m 1024 764 l 471 -286 l 233 -286 l 383 0 l 239 0 l 24 764 l 244 764 l 433 93 l 786 764 "},"ỳ":{"ha":1024,"x_min":0,"x_max":0,"o":"m 471 -286 l 233 -286 l 383 0 l 239 0 l 24 764 l 244 764 l 433 93 l 778 749 l -647 1139 l -631 1201 l 826 803 l 817 764 l 1024 764 "},"ȳ":{"ha":1024,"x_min":0,"x_max":0,"o":"m 1272 972 l 1272 903 l 208 903 l 208 972 m 1024 764 l 471 -286 l 233 -286 l 383 0 l 239 0 l 24 764 l 244 764 l 433 93 l 786 764 "},"ź":{"ha":997,"x_min":0,"x_max":0,"o":"m 158 0 l 158 181 l 638 583 l 53 583 l 53 761 l -21 740 l -37 803 l 1419 1201 l 1436 1139 l 65 764 l 888 764 l 888 583 l 408 181 l 979 181 l 979 0 "},"ž":{"ha":997,"x_min":0,"x_max":0,"o":"m 158 0 l 158 181 l 638 583 l 53 583 l 53 764 l 411 764 l -217 1146 l -183 1203 l 453 811 l 753 996 l 786 938 l 499 764 l 888 764 l 888 583 l 408 181 l 979 181 l 979 0 "},"ż":{"ha":997,"x_min":0,"x_max":0,"o":"m 419 1118 l 489 1118 l 489 832 l 419 832 m 158 0 l 158 181 l 638 583 l 53 583 l 53 764 l 888 764 l 888 583 l 408 181 l 979 181 l 979 0 "},"ə":{"ha":1058,"x_min":0,"x_max":0,"o":"m 996 396 b 504 3 996 140 800 3 b 42 389 219 3 42 133 l 42 457 l 797 457 b 501 607 782 565 676 607 l 178 607 l 356 788 l 494 788 b 996 426 825 788 996 682 l 996 396 m 508 178 b 785 313 660 178 750 229 l 269 313 b 508 178 290 221 372 178 "},"…":{"ha":1017,"x_min":0,"x_max":0,"o":"m 269 400 l 269 0 l 69 0 l 69 400 m 608 400 l 608 0 l 408 0 l 408 400 m 947 400 l 947 0 l 747 0 l 747 400 "},"–":{"ha":1138,"x_min":0,"x_max":0,"o":"m 97 317 l 97 515 l 1040 515 l 1040 317 "},"—":{"ha":1793,"x_min":0,"x_max":0,"o":"m 97 317 l 97 515 l 1696 515 l 1696 317 "},"‹":{"ha":497,"x_min":0,"x_max":0,"o":"m 407 -18 l 97 214 l 97 553 l 407 785 l 407 553 l 181 383 l 407 214 "},"›":{"ha":497,"x_min":0,"x_max":0,"o":"m 90 -18 l 90 214 l 317 383 l 90 553 l 90 785 l 400 553 l 400 214 "},"‘":{"ha":472,"x_min":0,"x_max":0,"o":"m 225 369 l 7 369 l 247 972 l 465 972 "},"’":{"ha":472,"x_min":0,"x_max":0,"o":"m 225 369 l 7 369 l 247 972 l 465 972 "},"“":{"ha":851,"x_min":0,"x_max":0,"o":"m 604 369 l 386 369 l 626 972 l 844 972 m 225 369 l 7 369 l 247 972 l 465 972 "},"”":{"ha":851,"x_min":0,"x_max":0,"o":"m 604 369 l 386 369 l 626 972 l 844 972 m 225 369 l 7 369 l 247 972 l 465 972 "},"‚":{"ha":472,"x_min":0,"x_max":0,"o":"m 225 -286 l 7 -286 l 247 317 l 465 317 "},"„":{"ha":851,"x_min":0,"x_max":0,"o":"m 225 -286 l 7 -286 l 247 317 l 465 317 m 604 -286 l 386 -286 l 626 317 l 844 317 "},"•":{"ha":856,"x_min":0,"x_max":0,"o":"m 194 417 b 428 650 194 546 299 650 b 661 417 557 650 661 546 b 428 183 661 288 557 183 b 194 417 299 183 194 288 "},"−":{"ha":826,"x_min":0,"x_max":0,"o":"m 139 385 l 139 447 l 688 447 l 688 385 "}," ":{"ha":1544,"x_min":0,"x_max":0,"o":""}," ":{"ha":594,"x_min":0,"x_max":0,"o":""}," ":{"ha":97,"x_min":0,"x_max":0,"o":""},"​":{"ha":0,"x_min":0,"x_max":0,"o":""},"﻿":{"ha":0,"x_min":0,"x_max":0,"o":""},"€":{"ha":1425,"x_min":0,"x_max":0,"o":"m 1278 26 b 908 -18 1175 -4 1050 -18 b 207 388 506 -18 242 94 l 42 388 l 64 450 l 203 450 l 203 456 l 203 522 l 89 522 l 111 585 l 206 585 b 908 1000 236 885 501 1000 b 1344 932 1082 1000 1229 979 l 1278 739 b 908 807 1183 792 1046 807 b 421 585 682 807 460 767 l 1225 585 l 1203 522 l 415 522 l 415 456 b 415 450 415 454 415 451 l 1178 450 l 1156 388 l 424 388 b 908 175 468 214 686 175 b 1278 243 1046 175 1183 190 l 1278 26 "},"ﬀ":{"ha":1556,"x_min":0,"x_max":0,"o":"m 743 764 l 874 764 b 886 851 874 796 878 825 l 618 886 b 400 764 482 886 400 851 l 653 764 l 653 583 l 400 583 l 400 0 l 193 0 l 193 583 l 42 583 l 42 764 l 193 764 b 551 1058 193 939 322 1058 l 785 1058 l 918 922 b 1232 1058 974 1007 1082 1058 l 1465 1058 l 1681 838 l 1299 886 b 1081 764 1163 886 1081 851 l 1475 764 l 1475 583 l 1081 583 l 1081 0 l 874 0 l 874 583 l 743 583 "},"ﬁ":{"ha":1192,"x_min":0,"x_max":0,"o":"m 42 764 l 193 764 b 551 1058 193 939 322 1058 l 785 1058 l 1000 838 l 618 886 b 400 764 482 886 400 851 l 735 764 l 735 583 l 400 583 l 400 0 l 193 0 l 193 583 l 42 583 m 1376 1058 l 1376 888 l 993 888 l 993 1058 m 1081 764 l 1081 0 l 874 0 l 874 764 "},"ﬃ":{"ha":1872,"x_min":0,"x_max":0,"o":"m 743 764 l 874 764 b 886 851 874 796 878 825 l 618 886 b 400 764 482 886 400 851 l 653 764 l 653 583 l 400 583 l 400 0 l 193 0 l 193 583 l 42 583 l 42 764 l 193 764 b 551 1058 193 939 322 1058 l 785 1058 l 918 922 b 1232 1058 974 1007 1082 1058 l 1465 1058 l 1681 838 l 1299 886 b 1081 764 1163 886 1081 851 l 1415 764 l 1415 583 l 1081 583 l 1081 0 l 874 0 l 874 583 l 743 583 m 2057 1058 l 2057 888 l 1674 888 l 1674 1058 m 1761 764 l 1761 0 l 1554 0 l 1554 764 "},"ﬂ":{"ha":1192,"x_min":0,"x_max":0,"o":"m 42 764 l 193 764 b 551 1058 193 939 322 1058 l 785 1058 l 1081 754 l 1081 0 l 874 0 l 874 854 l 618 886 b 400 764 482 886 400 851 l 735 764 l 735 583 l 400 583 l 400 0 l 193 0 l 193 583 l 42 583 "},"ﬄ":{"ha":1872,"x_min":0,"x_max":0,"o":"m 743 764 l 874 764 b 886 851 874 796 878 825 l 618 886 b 400 764 482 886 400 851 l 653 764 l 653 583 l 400 583 l 400 0 l 193 0 l 193 583 l 42 583 l 42 764 l 193 764 b 551 1058 193 939 322 1058 l 785 1058 l 918 922 b 1232 1058 974 1007 1082 1058 l 1465 1058 l 1761 754 l 1761 0 l 1554 0 l 1554 854 l 1299 886 b 1081 764 1163 886 1081 851 l 1415 764 l 1415 583 l 1081 583 l 1081 0 l 874 0 l 874 583 l 743 583 "},"⟑":{"ha":336,"x_min":0,"x_max":0,"o":"m 419 1058 l 419 888 l -83 888 l -83 1058 "},"˘":{"ha":642,"x_min":0,"x_max":0,"o":"m 168 903 b 0 1064 42 903 0 965 l 72 1064 b 168 972 72 1015 78 972 l 474 972 b 569 1064 564 972 569 1015 l 569 1263 l 642 1263 l 642 1064 b 474 903 642 965 600 903 "},"ˇ":{"ha":1003,"x_min":0,"x_max":0,"o":"m 671 738 l 0 1146 l 33 1203 l 669 811 l 969 996 l 1003 938 "},"ˆ":{"ha":1003,"x_min":0,"x_max":0,"o":"m 669 1129 l 33 738 l 0 794 l 671 1203 l 1003 1003 l 969 944 "},"˙":{"ha":69,"x_min":0,"x_max":0,"o":"m 0 1118 l 69 1118 l 69 832 l 0 832 "},"˝":{"ha":1474,"x_min":0,"x_max":0,"o":"m 1474 1139 l 17 740 l 0 803 l 1457 1201 m 1474 1003 l 742 801 l 725 864 l 1457 1065 "},"":{"ha":467,"x_min":0,"x_max":0,"o":"m 346 -71 l 467 -71 l 121 -286 l 0 -286 "},"˛":{"ha":69,"x_min":0,"x_max":0,"o":"m 0 -286 l 0 0 l 69 0 l 69 -286 "},"˚":{"ha":818,"x_min":0,"x_max":0,"o":"m 749 1249 b 408 910 749 1063 596 910 b 69 1249 222 910 69 1063 b 408 1589 69 1436 222 1589 b 749 1249 596 1589 749 1436 m 132 1249 b 408 972 132 1096 256 972 b 686 1249 563 972 686 1096 b 408 1526 686 1403 563 1526 b 132 1249 256 1526 132 1403 "},"˜":{"ha":1040,"x_min":0,"x_max":0,"o":"m 1040 1142 l 519 863 l 410 942 l 32 742 l 0 801 l 414 1021 l 524 942 l 1008 1201 "}}}
